<svg width="427" height="166" viewBox="0 0 427 166" fill="none" xmlns="http://www.w3.org/2000/svg">
<path d="M0.5 5C0.5 2.23857 2.73858 0 5.5 0H421.5C424.261 0 426.5 2.23858 426.5 5V91.3169C426.5 93.2589 425.358 95.0121 423.783 96.1485C421.379 97.8834 418.281 100.928 418.5 105C418.724 109.166 422.347 113.218 424.64 115.383C425.771 116.451 426.5 117.912 426.5 119.468V161C426.5 163.761 424.261 166 421.5 166H5.50001C2.73858 166 0.5 163.761 0.5 161V120.38C0.5 118.597 1.45485 116.955 2.89391 115.903C5.9039 113.702 10.6632 109.497 10.5 105C10.3577 101.081 6.47451 98.1498 3.58996 96.5054C1.79 95.4793 0.5 93.6318 0.5 91.5599V5Z" fill="url(#paint0_linear_56_37)"/>
<path d="M5.5 0.75H421.5C423.847 0.75 425.75 2.65279 425.75 5V91.3169C425.75 92.9574 424.779 94.5053 423.345 95.5403C420.911 97.2961 417.51 100.553 417.751 105.04C417.873 107.317 418.917 109.505 420.173 111.362C421.435 113.229 422.956 114.825 424.125 115.928C425.13 116.878 425.75 118.15 425.75 119.468V161C425.75 163.347 423.847 165.25 421.5 165.25H5.50001C3.1528 165.25 1.25 163.347 1.25 161V120.38C1.25 118.87 2.06178 117.44 3.33653 116.508C4.86623 115.39 6.86487 113.745 8.46731 111.788C10.0585 109.844 11.3409 107.49 11.2495 104.973C11.1693 102.763 10.0365 100.886 8.61855 99.3848C7.19858 97.8816 5.43667 96.6949 3.96139 95.8539C2.34708 94.9336 1.25 93.3109 1.25 91.5599V5C1.25 2.65279 3.15279 0.75 5.5 0.75Z" stroke="#231C1C" stroke-opacity="0.67" stroke-width="1.5"/>
<line x1="13.9999" y1="106" x2="417.006" y2="106" stroke="#231C1C" stroke-opacity="0.67" stroke-width="1.5" stroke-dasharray="2 2"/>
<path d="M401.414 33L403.99 29.025C404.3 28.5468 404.384 27.9784 404.224 27.4447C404.065 26.911 403.674 26.4558 403.139 26.1792L398.682 23.8792V19.2959C398.682 18.7433 398.436 18.2134 397.999 17.8227C397.561 17.432 396.967 17.2125 396.349 17.2125H391.218L388.644 13.2355C388.333 12.7582 387.824 12.4094 387.228 12.2646C386.932 12.193 386.623 12.1745 386.319 12.2103C386.015 12.2461 385.722 12.3353 385.457 12.473L381 14.773L376.543 12.4709C376.007 12.1946 375.371 12.1198 374.773 12.2628C374.175 12.4058 373.665 12.7549 373.356 13.2334L370.78 17.2125H365.649C365.03 17.2125 364.437 17.432 363.999 17.8227C363.561 18.2134 363.316 18.7433 363.316 19.2959V23.8771L358.859 26.1771C358.593 26.3137 358.36 26.4958 358.173 26.7131C357.986 26.9303 357.849 27.1784 357.77 27.443C357.691 27.7077 357.671 27.9837 357.712 28.2552C357.753 28.5267 357.853 28.7883 358.007 29.025L360.583 33L358.007 36.975C357.699 37.4537 357.616 38.0218 357.775 38.5552C357.934 39.0887 358.323 39.5444 358.857 39.823L363.313 42.123V46.7042C363.313 47.2567 363.559 47.7867 363.997 48.1774C364.434 48.5681 365.028 48.7875 365.647 48.7875H370.78L373.356 52.7667C373.563 53.082 373.858 53.3439 374.212 53.5265C374.566 53.7091 374.968 53.8063 375.377 53.8084C375.783 53.8084 376.186 53.7126 376.546 53.5271L380.998 51.2271L385.454 53.5271C385.99 53.803 386.627 53.8779 387.224 53.7353C387.822 53.5928 388.331 53.2444 388.642 52.7667L391.215 48.7875H396.346C396.965 48.7875 397.559 48.5681 397.996 48.1774C398.434 47.7867 398.68 47.2567 398.68 46.7042V42.123L403.136 39.823C403.402 39.686 403.634 39.5037 403.821 39.2864C404.007 39.0691 404.144 38.8211 404.223 38.5566C404.302 38.2921 404.322 38.0163 404.282 37.7449C404.242 37.4736 404.142 37.2119 403.988 36.975L401.414 33ZM375.164 22.5625C376.093 22.5628 376.983 22.8924 377.64 23.4789C378.296 24.0653 378.665 24.8606 378.664 25.6896C378.664 26.5187 378.295 27.3137 377.638 27.8998C376.981 28.4858 376.091 28.8149 375.162 28.8146C374.233 28.8144 373.343 28.4847 372.687 27.8983C372.03 27.3119 371.662 26.5166 371.662 25.6875C371.662 24.8585 372.031 24.0635 372.688 23.4774C373.345 22.8914 374.236 22.5623 375.164 22.5625ZM375.864 42.5626L372.131 40.0646L386.131 23.398L389.864 25.8959L375.864 42.5626ZM386.831 43.3959C386.371 43.3957 385.916 43.3148 385.491 43.1575C385.067 43.0003 384.681 42.7699 384.356 42.4795C384.031 42.1892 383.773 41.8445 383.597 41.4652C383.421 41.0858 383.331 40.6793 383.331 40.2688C383.331 39.8583 383.422 39.4518 383.598 39.0726C383.774 38.6934 384.032 38.3488 384.357 38.0587C384.682 37.7685 385.069 37.5383 385.493 37.3814C385.918 37.2244 386.374 37.1437 386.833 37.1438C387.762 37.1441 388.652 37.4737 389.309 38.0601C389.965 38.6466 390.334 39.4418 390.333 40.2709C390.333 41.1 389.964 41.895 389.307 42.481C388.65 43.0671 387.76 43.3962 386.831 43.3959Z" fill="#E1E8FF"/>
<path d="M20.25 37.75H22.75M18 41.5H25C26.4001 41.5 27.1003 41.5 27.635 41.2275C28.1054 40.9879 28.4879 40.6054 28.7275 40.135C29 39.6003 29 38.9001 29 37.5V23C29 21.5999 29 20.8998 28.7275 20.365C28.4879 19.8946 28.1054 19.5122 27.635 19.2725C27.1003 19 26.4001 19 25 19H18C16.5999 19 15.8998 19 15.365 19.2725C14.8946 19.5122 14.5122 19.8946 14.2725 20.365C14 20.8998 14 21.5999 14 23V37.5C14 38.9001 14 39.6003 14.2725 40.135C14.5122 40.6054 14.8946 40.9879 15.365 41.2275C15.8998 41.5 16.5999 41.5 18 41.5Z" stroke="black" stroke-width="2.5" stroke-linecap="round" stroke-linejoin="round"/>
<path d="M44.4411 37L41.2663 26.0909H44.18L45.826 33.2393H45.9165L47.7969 26.0909H50.1726L52.0529 33.2553H52.1435L53.7947 26.0909H56.7031L53.5337 37H50.9929L49.0273 30.3842H48.9421L46.9766 37H44.4411ZM57.7924 37V26.0909H65.399V28.2322H60.4292V30.4695H65.0101V32.6161H60.4292V34.8587H65.399V37H57.7924ZM67.0502 37V26.0909H71.5993C72.416 26.0909 73.0996 26.2063 73.65 26.4371C74.204 26.668 74.6195 26.9911 74.8965 27.4066C75.177 27.8221 75.3173 28.3033 75.3173 28.8501C75.3173 29.2656 75.2303 29.6367 75.0563 29.9634C74.8823 30.2866 74.6426 30.5547 74.3372 30.7678C74.0318 30.9808 73.6784 31.13 73.2772 31.2152V31.3217C73.7175 31.343 74.1241 31.462 74.497 31.6786C74.8734 31.8952 75.1752 32.1971 75.4025 32.5842C75.6298 32.9677 75.7434 33.4222 75.7434 33.9478C75.7434 34.5337 75.5943 35.0575 75.296 35.5192C74.9977 35.9773 74.5662 36.3395 74.0016 36.6058C73.437 36.8686 72.7516 37 71.9455 37H67.0502ZM69.687 34.8746H71.3169C71.8887 34.8746 72.3095 34.7663 72.5794 34.5497C72.8528 34.3331 72.9895 34.0312 72.9895 33.6442C72.9895 33.3636 72.9238 33.1222 72.7924 32.9197C72.661 32.7138 72.4746 32.5558 72.2331 32.4457C71.9917 32.332 71.7022 32.2752 71.3649 32.2752H69.687V34.8746ZM69.687 30.576H71.1465C71.4341 30.576 71.6898 30.5281 71.9135 30.4322C72.1373 30.3363 72.3113 30.1978 72.4355 30.0167C72.5634 29.8356 72.6273 29.6172 72.6273 29.3615C72.6273 28.9957 72.4977 28.7081 72.2385 28.4986C71.9792 28.2891 71.6294 28.1843 71.1891 28.1843H69.687V30.576ZM82.5936 37H79.7598L83.4405 26.0909H86.9508L90.6316 37H87.7978L85.2356 28.8395H85.1504L82.5936 37ZM82.2154 32.7067H88.1387V34.7095H82.2154V32.7067ZM91.8061 37V26.0909H96.3125C97.1293 26.0909 97.8342 26.2507 98.4272 26.5703C99.0238 26.8864 99.4837 27.3285 99.8068 27.8967C100.13 28.4613 100.292 29.1183 100.292 29.8675C100.292 30.6204 100.126 31.2791 99.7962 31.8438C99.4695 32.4048 99.0025 32.8398 98.3952 33.1488C97.788 33.4577 97.0671 33.6122 96.2326 33.6122H93.4521V31.5348H95.7425C96.1403 31.5348 96.4723 31.4656 96.7386 31.3271C97.0085 31.1886 97.2127 30.995 97.3512 30.7464C97.4897 30.4943 97.5589 30.2013 97.5589 29.8675C97.5589 29.5302 97.4897 29.239 97.3512 28.994C97.2127 28.7454 97.0085 28.5536 96.7386 28.4187C96.4688 28.2837 96.1367 28.2163 95.7425 28.2163H94.4428V37H91.8061ZM101.591 37V26.0909H106.098C106.914 26.0909 107.619 26.2507 108.212 26.5703C108.809 26.8864 109.269 27.3285 109.592 27.8967C109.915 28.4613 110.077 29.1183 110.077 29.8675C110.077 30.6204 109.912 31.2791 109.581 31.8438C109.255 32.4048 108.788 32.8398 108.18 33.1488C107.573 33.4577 106.852 33.6122 106.018 33.6122H103.237V31.5348H105.528C105.925 31.5348 106.257 31.4656 106.524 31.3271C106.794 31.1886 106.998 30.995 107.136 30.7464C107.275 30.4943 107.344 30.2013 107.344 29.8675C107.344 29.5302 107.275 29.239 107.136 28.994C106.998 28.7454 106.794 28.5536 106.524 28.4187C106.254 28.2837 105.922 28.2163 105.528 28.2163H104.228V37H101.591ZM124.896 31.5455C124.896 32.7457 124.665 33.7631 124.203 34.5977C123.741 35.4322 123.116 36.0661 122.328 36.4993C121.543 36.9325 120.663 37.1491 119.686 37.1491C118.706 37.1491 117.824 36.9308 117.039 36.494C116.254 36.0572 115.631 35.4233 115.169 34.5923C114.711 33.7578 114.482 32.7422 114.482 31.5455C114.482 30.3452 114.711 29.3278 115.169 28.4933C115.631 27.6587 116.254 27.0249 117.039 26.5916C117.824 26.1584 118.706 25.9418 119.686 25.9418C120.663 25.9418 121.543 26.1584 122.328 26.5916C123.116 27.0249 123.741 27.6587 124.203 28.4933C124.665 29.3278 124.896 30.3452 124.896 31.5455ZM122.2 31.5455C122.2 30.8352 122.099 30.2351 121.897 29.745C121.698 29.255 121.41 28.8839 121.034 28.6317C120.661 28.3796 120.212 28.2536 119.686 28.2536C119.164 28.2536 118.715 28.3796 118.338 28.6317C117.962 28.8839 117.673 29.255 117.47 29.745C117.271 30.2351 117.172 30.8352 117.172 31.5455C117.172 32.2557 117.271 32.8558 117.47 33.3459C117.673 33.8359 117.962 34.207 118.338 34.4592C118.715 34.7113 119.164 34.8374 119.686 34.8374C120.212 34.8374 120.661 34.7113 121.034 34.4592C121.41 34.207 121.698 33.8359 121.897 33.3459C122.099 32.8558 122.2 32.2557 122.2 31.5455ZM135.719 26.0909V37H133.482L129.141 30.7038H129.072V37H126.435V26.0909H128.704L132.998 32.3764H133.088V26.0909H135.719ZM137.377 37V26.0909H140.014V34.8587H144.552V37H137.377ZM143.69 26.0909H146.635L148.942 30.6559H149.038L151.344 26.0909H154.29L150.3 33.3565V37H147.679V33.3565L143.69 26.0909ZM168.914 31.5455C168.914 32.7457 168.683 33.7631 168.222 34.5977C167.76 35.4322 167.135 36.0661 166.347 36.4993C165.562 36.9325 164.681 37.1491 163.705 37.1491C162.725 37.1491 161.842 36.9308 161.057 36.494C160.272 36.0572 159.649 35.4233 159.188 34.5923C158.729 33.7578 158.5 32.7422 158.5 31.5455C158.5 30.3452 158.729 29.3278 159.188 28.4933C159.649 27.6587 160.272 27.0249 161.057 26.5916C161.842 26.1584 162.725 25.9418 163.705 25.9418C164.681 25.9418 165.562 26.1584 166.347 26.5916C167.135 27.0249 167.76 27.6587 168.222 28.4933C168.683 29.3278 168.914 30.3452 168.914 31.5455ZM166.219 31.5455C166.219 30.8352 166.118 30.2351 165.915 29.745C165.716 29.255 165.429 28.8839 165.052 28.6317C164.679 28.3796 164.23 28.2536 163.705 28.2536C163.183 28.2536 162.733 28.3796 162.357 28.6317C161.981 28.8839 161.691 29.255 161.489 29.745C161.29 30.2351 161.19 30.8352 161.19 31.5455C161.19 32.2557 161.29 32.8558 161.489 33.3459C161.691 33.8359 161.981 34.207 162.357 34.4592C162.733 34.7113 163.183 34.8374 163.705 34.8374C164.23 34.8374 164.679 34.7113 165.052 34.4592C165.429 34.207 165.716 33.8359 165.915 33.3459C166.118 32.8558 166.219 32.2557 166.219 31.5455ZM170.454 37V26.0909H177.9V28.2322H173.09V30.4695H177.426V32.6161H173.09V37H170.454ZM179.228 37V26.0909H186.675V28.2322H181.865V30.4695H186.201V32.6161H181.865V37H179.228ZM188.002 37V26.0909H195.609V28.2322H190.639V30.4695H195.22V32.6161H190.639V34.8587H195.609V37H188.002ZM197.26 37V26.0909H201.767C202.583 26.0909 203.288 26.2383 203.881 26.533C204.478 26.8242 204.938 27.2433 205.261 27.7901C205.584 28.3335 205.746 28.978 205.746 29.7237C205.746 30.4801 205.581 31.1229 205.25 31.652C204.92 32.1776 204.451 32.5788 203.844 32.8558C203.237 33.1293 202.518 33.266 201.687 33.266H198.837V31.1886H201.197C201.594 31.1886 201.926 31.1371 202.193 31.0341C202.463 30.9276 202.667 30.7678 202.805 30.5547C202.944 30.3381 203.013 30.0611 203.013 29.7237C203.013 29.3864 202.944 29.1076 202.805 28.8874C202.667 28.6637 202.463 28.4968 202.193 28.3867C201.923 28.2731 201.591 28.2163 201.197 28.2163H199.897V37H197.26ZM203.402 32.0142L206.119 37H203.242L200.579 32.0142H203.402Z" fill="#5257B9"/>
<path d="M22.5824 139.435H20.4517C20.4233 139.216 20.3651 139.018 20.277 138.842C20.1889 138.666 20.0724 138.516 19.9276 138.391C19.7827 138.266 19.6108 138.17 19.4119 138.105C19.2159 138.037 18.9986 138.003 18.7599 138.003C18.3366 138.003 17.9716 138.107 17.6648 138.314C17.3608 138.521 17.1264 138.821 16.9616 139.213C16.7997 139.605 16.7188 140.08 16.7188 140.636C16.7188 141.216 16.8011 141.702 16.9659 142.094C17.1335 142.483 17.3679 142.777 17.669 142.976C17.973 143.172 18.3324 143.27 18.7472 143.27C18.9801 143.27 19.1918 143.24 19.3821 143.18C19.5753 143.121 19.7443 143.034 19.8892 142.92C20.0369 142.804 20.1577 142.663 20.2514 142.499C20.348 142.331 20.4148 142.142 20.4517 141.932L22.5824 141.945C22.5455 142.331 22.4332 142.712 22.2457 143.087C22.0611 143.462 21.8068 143.804 21.483 144.114C21.1591 144.42 20.7642 144.665 20.2983 144.847C19.8352 145.028 19.304 145.119 18.7045 145.119C17.9148 145.119 17.2074 144.946 16.5824 144.599C15.9602 144.25 15.4688 143.741 15.108 143.074C14.7472 142.406 14.5668 141.594 14.5668 140.636C14.5668 139.676 14.75 138.862 15.1165 138.195C15.483 137.527 15.9787 137.02 16.6037 136.673C17.2287 136.327 17.929 136.153 18.7045 136.153C19.233 136.153 19.7216 136.227 20.1705 136.375C20.6193 136.52 21.0142 136.733 21.3551 137.014C21.696 137.293 21.973 137.635 22.1861 138.041C22.3991 138.447 22.5312 138.912 22.5824 139.435ZM32.0266 140.636C32.0266 141.597 31.842 142.411 31.4727 143.078C31.1033 143.746 30.6033 144.253 29.9727 144.599C29.3448 144.946 28.6403 145.119 27.859 145.119C27.0749 145.119 26.369 144.945 25.7411 144.595C25.1133 144.246 24.6147 143.739 24.2454 143.074C23.8789 142.406 23.6957 141.594 23.6957 140.636C23.6957 139.676 23.8789 138.862 24.2454 138.195C24.6147 137.527 25.1133 137.02 25.7411 136.673C26.369 136.327 27.0749 136.153 27.859 136.153C28.6403 136.153 29.3448 136.327 29.9727 136.673C30.6033 137.02 31.1033 137.527 31.4727 138.195C31.842 138.862 32.0266 139.676 32.0266 140.636ZM29.8704 140.636C29.8704 140.068 29.7894 139.588 29.6275 139.196C29.4684 138.804 29.2383 138.507 28.9371 138.305C28.6388 138.104 28.2795 138.003 27.859 138.003C27.4414 138.003 27.082 138.104 26.7809 138.305C26.4798 138.507 26.2482 138.804 26.0863 139.196C25.9272 139.588 25.8477 140.068 25.8477 140.636C25.8477 141.205 25.9272 141.685 26.0863 142.077C26.2482 142.469 26.4798 142.766 26.7809 142.967C27.082 143.169 27.4414 143.27 27.859 143.27C28.2795 143.27 28.6388 143.169 28.9371 142.967C29.2383 142.766 29.4684 142.469 29.6275 142.077C29.7894 141.685 29.8704 141.205 29.8704 140.636ZM36.484 145H33.2582V136.273H36.4798C37.369 136.273 38.1346 136.447 38.7766 136.797C39.4215 137.143 39.9187 137.643 40.2681 138.297C40.6175 138.947 40.7923 139.726 40.7923 140.632C40.7923 141.541 40.6175 142.322 40.2681 142.976C39.9215 143.629 39.4258 144.131 38.7809 144.48C38.136 144.827 37.3704 145 36.484 145ZM35.3675 143.202H36.4031C36.8917 143.202 37.305 143.119 37.6431 142.955C37.984 142.787 38.2411 142.516 38.4144 142.141C38.5906 141.763 38.6786 141.26 38.6786 140.632C38.6786 140.004 38.5906 139.504 38.4144 139.132C38.2383 138.757 37.9783 138.487 37.6346 138.322C37.2937 138.155 36.8732 138.071 36.3732 138.071H35.3675V143.202ZM42.0238 145V136.273H48.109V137.986H44.1332V139.776H47.7979V141.493H44.1332V143.287H48.109V145H42.0238ZM53.18 144.02C52.8732 144.02 52.6104 143.912 52.3917 143.696C52.1758 143.48 52.0692 143.219 52.0721 142.912C52.0692 142.611 52.1758 142.354 52.3917 142.141C52.6104 141.925 52.8732 141.817 53.18 141.817C53.4698 141.817 53.7255 141.925 53.9471 142.141C54.1715 142.354 54.2852 142.611 54.288 142.912C54.2852 143.116 54.2312 143.303 54.1261 143.47C54.0238 143.638 53.8888 143.771 53.7212 143.871C53.5565 143.97 53.3761 144.02 53.18 144.02ZM53.18 139.784C52.8732 139.784 52.6104 139.676 52.3917 139.46C52.1758 139.244 52.0692 138.983 52.0721 138.676C52.0692 138.375 52.1758 138.118 52.3917 137.905C52.6104 137.689 52.8732 137.581 53.18 137.581C53.4698 137.581 53.7255 137.689 53.9471 137.905C54.1715 138.118 54.2852 138.375 54.288 138.676C54.2852 138.881 54.2312 139.067 54.1261 139.234C54.0238 139.402 53.8888 139.536 53.7212 139.635C53.5565 139.734 53.3761 139.784 53.18 139.784ZM58.2425 145V136.273H61.8477C62.5011 136.273 63.065 136.401 63.5394 136.656C64.0167 136.909 64.3846 137.263 64.6431 137.717C64.9016 138.169 65.0309 138.695 65.0309 139.294C65.0309 139.896 64.8988 140.423 64.6346 140.875C64.3732 141.324 63.9996 141.672 63.5138 141.919C63.0281 142.166 62.4513 142.29 61.7837 142.29H59.5593V140.628H61.3917C61.7099 140.628 61.9755 140.572 62.1886 140.462C62.4045 140.351 62.5678 140.196 62.6786 139.997C62.7894 139.795 62.8448 139.561 62.8448 139.294C62.8448 139.024 62.7894 138.791 62.6786 138.595C62.5678 138.396 62.4045 138.243 62.1886 138.135C61.9727 138.027 61.707 137.973 61.3917 137.973H60.3519V145H58.2425ZM66.0707 145V136.273H68.18V139.776H71.619V136.273H73.7241V145H71.619V141.493H68.18V145H66.0707ZM76.935 145H74.668L77.6126 136.273H80.4208L83.3654 145H81.0984L79.0487 138.472H78.9805L76.935 145ZM76.6325 141.565H81.3711V143.168H76.6325V141.565ZM84.305 145V136.273H87.9102C88.5636 136.273 89.1275 136.391 89.6019 136.626C90.0792 136.859 90.4471 137.195 90.7056 137.632C90.9641 138.067 91.0934 138.582 91.0934 139.179C91.0934 139.784 90.9613 140.298 90.6971 140.722C90.4329 141.142 90.0579 141.463 89.5721 141.685C89.0863 141.903 88.511 142.013 87.8462 142.013H85.5664V140.351H87.4542C87.7724 140.351 88.038 140.31 88.2511 140.227C88.467 140.142 88.6303 140.014 88.7411 139.844C88.8519 139.67 88.9073 139.449 88.9073 139.179C88.9073 138.909 88.8519 138.686 88.7411 138.51C88.6303 138.331 88.467 138.197 88.2511 138.109C88.0352 138.018 87.7695 137.973 87.4542 137.973H86.4144V145H84.305ZM89.2184 141.011L91.3917 145H89.0906L86.9599 141.011H89.2184ZM92.2504 136.273H94.8626L97.0785 141.676H97.1808L99.3967 136.273H102.009V145H99.9549V139.639H99.8825L97.7859 144.945H96.4734L94.3768 139.609H94.3043V145H92.2504V136.273ZM105.212 145H102.945L105.89 136.273H108.698L111.643 145H109.376L107.326 138.472H107.258L105.212 145ZM104.91 141.565H109.648V143.168H104.91V141.565ZM112.565 145V143.483L115.749 140.696C115.987 140.48 116.19 140.283 116.358 140.104C116.526 139.922 116.653 139.74 116.741 139.558C116.83 139.374 116.874 139.173 116.874 138.957C116.874 138.716 116.821 138.51 116.716 138.339C116.611 138.166 116.466 138.033 116.281 137.939C116.097 137.845 115.885 137.798 115.646 137.798C115.405 137.798 115.193 137.848 115.011 137.947C114.83 138.044 114.688 138.185 114.585 138.369C114.486 138.554 114.436 138.778 114.436 139.043H112.438C112.438 138.449 112.571 137.936 112.838 137.504C113.105 137.072 113.48 136.74 113.963 136.507C114.449 136.271 115.013 136.153 115.655 136.153C116.317 136.153 116.892 136.264 117.381 136.486C117.869 136.707 118.247 137.017 118.514 137.415C118.784 137.81 118.919 138.268 118.919 138.791C118.919 139.124 118.852 139.453 118.719 139.78C118.585 140.107 118.345 140.467 117.999 140.862C117.655 141.257 117.166 141.73 116.533 142.281L115.489 143.244V143.3H119.026V145H112.565ZM119.924 143.551V141.906L123.499 136.273H124.961V138.506H124.113L122.02 141.821V141.889H127.198V143.551H119.924ZM124.138 145V143.048L124.181 142.328V136.273H126.154V145H124.138Z" fill="#1C274C" fill-opacity="0.42"/>
<path d="M22.7273 65.125C22.6477 64.8485 22.536 64.6042 22.392 64.392C22.2481 64.1761 22.072 63.9943 21.8636 63.8466C21.6591 63.6951 21.4242 63.5795 21.1591 63.5C20.8977 63.4205 20.608 63.3807 20.2898 63.3807C19.6951 63.3807 19.1723 63.5284 18.7216 63.8239C18.2746 64.1193 17.9261 64.5492 17.6761 65.1136C17.4261 65.6742 17.3011 66.3598 17.3011 67.1705C17.3011 67.9811 17.4242 68.6705 17.6705 69.2386C17.9167 69.8068 18.2652 70.2405 18.7159 70.5398C19.1667 70.8352 19.6989 70.983 20.3125 70.983C20.8693 70.983 21.3447 70.8845 21.7386 70.6875C22.1364 70.4867 22.4394 70.2045 22.6477 69.8409C22.8598 69.4773 22.9659 69.0473 22.9659 68.5511L23.4659 68.625H20.4659V66.7727H25.3352V68.2386C25.3352 69.2614 25.1193 70.1402 24.6875 70.875C24.2557 71.6061 23.661 72.1705 22.9034 72.5682C22.1458 72.9621 21.2784 73.1591 20.3011 73.1591C19.2102 73.1591 18.2519 72.9186 17.4261 72.4375C16.6004 71.9527 15.9564 71.2652 15.4943 70.375C15.036 69.4811 14.8068 68.4205 14.8068 67.1932C14.8068 66.25 14.9432 65.4091 15.2159 64.6705C15.4924 63.928 15.8788 63.2992 16.375 62.7841C16.8712 62.2689 17.4489 61.8769 18.108 61.608C18.767 61.339 19.4811 61.2045 20.25 61.2045C20.9091 61.2045 21.5227 61.3011 22.0909 61.4943C22.6591 61.6837 23.1629 61.9527 23.6023 62.3011C24.0455 62.6496 24.4072 63.0644 24.6875 63.5455C24.9678 64.0227 25.1477 64.5492 25.2273 65.125H22.7273ZM31.1151 73.1705C30.2173 73.1705 29.4446 72.9886 28.7969 72.625C28.1529 72.2576 27.6567 71.7386 27.3082 71.0682C26.9598 70.3939 26.7855 69.5966 26.7855 68.6761C26.7855 67.7784 26.9598 66.9905 27.3082 66.3125C27.6567 65.6345 28.1473 65.1061 28.7798 64.7273C29.4162 64.3485 30.1624 64.1591 31.0185 64.1591C31.5942 64.1591 32.1302 64.2519 32.6264 64.4375C33.1264 64.6193 33.562 64.8939 33.9332 65.2614C34.3082 65.6288 34.5999 66.0909 34.8082 66.6477C35.0166 67.2008 35.1207 67.8485 35.1207 68.5909V69.2557H27.7514V67.7557H32.8423C32.8423 67.4072 32.7666 67.0985 32.6151 66.8295C32.4635 66.5606 32.2533 66.3504 31.9844 66.1989C31.7192 66.0436 31.4105 65.9659 31.0582 65.9659C30.6908 65.9659 30.3651 66.0511 30.081 66.2216C29.8007 66.3883 29.581 66.6136 29.4219 66.8977C29.2628 67.178 29.1813 67.4905 29.1776 67.8352V69.2614C29.1776 69.6932 29.2571 70.0663 29.4162 70.3807C29.5791 70.6951 29.8082 70.9375 30.1037 71.108C30.3991 71.2784 30.7495 71.3636 31.1548 71.3636C31.4238 71.3636 31.67 71.3258 31.8935 71.25C32.117 71.1742 32.3082 71.0606 32.4673 70.9091C32.6264 70.7576 32.7476 70.572 32.831 70.3523L35.0696 70.5C34.956 71.0379 34.723 71.5076 34.3707 71.9091C34.0223 72.3068 33.5715 72.6174 33.0185 72.8409C32.4692 73.0606 31.8348 73.1705 31.1151 73.1705ZM41.3423 64.2727V66.0909H36.0866V64.2727H41.3423ZM37.2798 62.1818H39.7003V70.3182C39.7003 70.5417 39.7344 70.7159 39.8026 70.8409C39.8707 70.9621 39.9654 71.0473 40.0866 71.0966C40.2116 71.1458 40.3556 71.1705 40.5185 71.1705C40.6321 71.1705 40.7457 71.161 40.8594 71.142C40.973 71.1193 41.0601 71.1023 41.1207 71.0909L41.5014 72.892C41.3802 72.9299 41.2098 72.9735 40.9901 73.0227C40.7704 73.0758 40.5033 73.108 40.1889 73.1193C39.6056 73.142 39.0942 73.0644 38.6548 72.8864C38.2192 72.7083 37.8802 72.4318 37.6378 72.0568C37.3954 71.6818 37.276 71.2083 37.2798 70.6364V62.1818ZM50.8494 73.1591C50.0464 73.1591 49.3305 73.0114 48.7017 72.7159C48.0767 72.4205 47.5805 72.0133 47.2131 71.4943C46.8456 70.9754 46.6544 70.3807 46.6392 69.7102H49.0256C49.0521 70.161 49.2415 70.5265 49.5938 70.8068C49.946 71.0871 50.3646 71.2273 50.8494 71.2273C51.2358 71.2273 51.5767 71.142 51.8722 70.9716C52.1714 70.7973 52.4044 70.5568 52.571 70.25C52.7415 69.9394 52.8267 69.5833 52.8267 69.1818C52.8267 68.7727 52.7396 68.4129 52.5653 68.1023C52.3949 67.7917 52.1581 67.5492 51.8551 67.375C51.5521 67.2008 51.2055 67.1117 50.8153 67.108C50.4744 67.108 50.143 67.178 49.821 67.3182C49.5028 67.4583 49.2547 67.6496 49.0767 67.892L46.8892 67.5L47.4403 61.3636H54.554V63.375H49.4688L49.1676 66.2898H49.2358C49.4403 66.0019 49.7491 65.7633 50.1619 65.5739C50.5748 65.3845 51.0369 65.2898 51.5483 65.2898C52.2491 65.2898 52.8741 65.4545 53.4233 65.7841C53.9725 66.1136 54.4062 66.5663 54.7244 67.142C55.0426 67.714 55.1998 68.3731 55.196 69.1193C55.1998 69.9034 55.018 70.6004 54.6506 71.2102C54.2869 71.8163 53.7775 72.2936 53.1222 72.642C52.4706 72.9867 51.7131 73.1591 50.8494 73.1591ZM63.2812 70.8182V70.2045C63.2812 69.7386 63.3797 69.3106 63.5767 68.9205C63.7775 68.5265 64.0672 68.2121 64.446 67.9773C64.8286 67.7386 65.2945 67.6193 65.8438 67.6193C66.4006 67.6193 66.8684 67.7367 67.2472 67.9716C67.6297 68.2064 67.9176 68.5208 68.1108 68.9148C68.3078 69.3049 68.4062 69.7348 68.4062 70.2045V70.8182C68.4062 71.2841 68.3078 71.714 68.1108 72.108C67.9138 72.4981 67.6241 72.8106 67.2415 73.0455C66.8589 73.2841 66.393 73.4034 65.8438 73.4034C65.2869 73.4034 64.8191 73.2841 64.4403 73.0455C64.0616 72.8106 63.7737 72.4981 63.5767 72.108C63.3797 71.714 63.2812 71.2841 63.2812 70.8182ZM64.9347 70.2045V70.8182C64.9347 71.0871 64.9991 71.3409 65.1278 71.5795C65.2604 71.8182 65.4991 71.9375 65.8438 71.9375C66.1884 71.9375 66.4233 71.8201 66.5483 71.5852C66.6771 71.3504 66.7415 71.0947 66.7415 70.8182V70.2045C66.7415 69.928 66.6809 69.6705 66.5597 69.4318C66.4384 69.1932 66.1998 69.0739 65.8438 69.0739C65.5028 69.0739 65.2661 69.1932 65.1335 69.4318C65.0009 69.6705 64.9347 69.928 64.9347 70.2045ZM57.3097 64.1591V63.5455C57.3097 63.0758 57.41 62.6458 57.6108 62.2557C57.8116 61.8617 58.1013 61.5473 58.4801 61.3125C58.8627 61.0777 59.3248 60.9602 59.8665 60.9602C60.4271 60.9602 60.8968 61.0777 61.2756 61.3125C61.6544 61.5473 61.9422 61.8617 62.1392 62.2557C62.3362 62.6458 62.4347 63.0758 62.4347 63.5455V64.1591C62.4347 64.6288 62.3343 65.0587 62.1335 65.4489C61.9366 65.839 61.6468 66.1515 61.2642 66.3864C60.8854 66.6174 60.4195 66.733 59.8665 66.733C59.3134 66.733 58.8456 66.6155 58.4631 66.3807C58.0843 66.142 57.7964 65.8295 57.5994 65.4432C57.4063 65.053 57.3097 64.625 57.3097 64.1591ZM58.9744 63.5455V64.1591C58.9744 64.4356 59.0388 64.6913 59.1676 64.9261C59.3002 65.161 59.5331 65.2784 59.8665 65.2784C60.215 65.2784 60.4517 65.161 60.5767 64.9261C60.7055 64.6913 60.7699 64.4356 60.7699 64.1591V63.5455C60.7699 63.2689 60.7093 63.0114 60.5881 62.7727C60.4669 62.5341 60.2263 62.4148 59.8665 62.4148C59.5294 62.4148 59.2964 62.536 59.1676 62.7784C59.0388 63.0208 58.9744 63.2765 58.9744 63.5455ZM58.0597 73L66.0597 61.3636H67.5483L59.5483 73H58.0597ZM85.1264 67.1818C85.1264 68.4508 84.8859 69.5303 84.4048 70.4205C83.9276 71.3106 83.276 71.9905 82.4503 72.4602C81.6283 72.9261 80.7041 73.1591 79.6776 73.1591C78.6435 73.1591 77.7154 72.9242 76.8935 72.4545C76.0715 71.9848 75.4219 71.3049 74.9446 70.4148C74.4673 69.5246 74.2287 68.447 74.2287 67.1818C74.2287 65.9129 74.4673 64.8333 74.9446 63.9432C75.4219 63.053 76.0715 62.375 76.8935 61.9091C77.7154 61.4394 78.6435 61.2045 79.6776 61.2045C80.7041 61.2045 81.6283 61.4394 82.4503 61.9091C83.276 62.375 83.9276 63.053 84.4048 63.9432C84.8859 64.8333 85.1264 65.9129 85.1264 67.1818ZM82.6321 67.1818C82.6321 66.3598 82.509 65.6667 82.2628 65.1023C82.0204 64.5379 81.6776 64.1098 81.2344 63.8182C80.7912 63.5265 80.2723 63.3807 79.6776 63.3807C79.0829 63.3807 78.5639 63.5265 78.1207 63.8182C77.6776 64.1098 77.3329 64.5379 77.0866 65.1023C76.8442 65.6667 76.723 66.3598 76.723 67.1818C76.723 68.0038 76.8442 68.697 77.0866 69.2614C77.3329 69.8258 77.6776 70.2538 78.1207 70.5455C78.5639 70.8371 79.0829 70.983 79.6776 70.983C80.2723 70.983 80.7912 70.8371 81.2344 70.5455C81.6776 70.2538 82.0204 69.8258 82.2628 69.2614C82.509 68.697 82.6321 68.0038 82.6321 67.1818ZM86.9489 73V61.3636H94.6534V63.392H89.4091V66.1648H94.142V68.1932H89.4091V73H86.9489ZM96.3082 73V61.3636H104.013V63.392H98.7685V66.1648H103.501V68.1932H98.7685V73H96.3082ZM108.412 67.9091L108.554 65.7102L106.713 66.9432L105.952 65.6023L107.935 64.6364L105.952 63.6705L106.713 62.3295L108.554 63.5625L108.412 61.3636H109.94L109.793 63.5625L111.634 62.3295L112.395 63.6705L110.418 64.6364L112.395 65.6023L111.634 66.9432L109.793 65.7102L109.94 67.9091H108.412ZM122.3 73.1705C121.417 73.1705 120.654 72.983 120.01 72.608C119.37 72.2292 118.875 71.7027 118.527 71.0284C118.179 70.3504 118.004 69.5644 118.004 68.6705C118.004 67.7689 118.179 66.9811 118.527 66.3068C118.875 65.6288 119.37 65.1023 120.01 64.7273C120.654 64.3485 121.417 64.1591 122.3 64.1591C123.182 64.1591 123.944 64.3485 124.584 64.7273C125.228 65.1023 125.724 65.6288 126.072 66.3068C126.421 66.9811 126.595 67.7689 126.595 68.6705C126.595 69.5644 126.421 70.3504 126.072 71.0284C125.724 71.7027 125.228 72.2292 124.584 72.608C123.944 72.983 123.182 73.1705 122.3 73.1705ZM122.311 71.2955C122.713 71.2955 123.048 71.1818 123.317 70.9545C123.586 70.7235 123.788 70.4091 123.925 70.0114C124.065 69.6136 124.135 69.161 124.135 68.6534C124.135 68.1458 124.065 67.6932 123.925 67.2955C123.788 66.8977 123.586 66.5833 123.317 66.3523C123.048 66.1212 122.713 66.0057 122.311 66.0057C121.906 66.0057 121.565 66.1212 121.288 66.3523C121.016 66.5833 120.809 66.8977 120.669 67.2955C120.533 67.6932 120.464 68.1458 120.464 68.6534C120.464 69.161 120.533 69.6136 120.669 70.0114C120.809 70.4091 121.016 70.7235 121.288 70.9545C121.565 71.1818 121.906 71.2955 122.311 71.2955ZM130.589 67.9545V73H128.169V64.2727H130.476V65.8125H130.578C130.771 65.3049 131.095 64.9034 131.55 64.608C132.004 64.3087 132.555 64.1591 133.203 64.1591C133.809 64.1591 134.338 64.2917 134.788 64.5568C135.239 64.822 135.589 65.2008 135.839 65.6932C136.089 66.1818 136.214 66.7652 136.214 67.4432V73H133.794V67.875C133.798 67.3409 133.661 66.9242 133.385 66.625C133.108 66.322 132.728 66.1705 132.243 66.1705C131.917 66.1705 131.629 66.2405 131.379 66.3807C131.133 66.5208 130.94 66.7254 130.8 66.9943C130.663 67.2595 130.593 67.5795 130.589 67.9545ZM143.32 76.2727C143.013 76.2727 142.725 76.2481 142.456 76.1989C142.191 76.1534 141.971 76.0947 141.797 76.0227L142.342 74.2159C142.626 74.303 142.882 74.3504 143.109 74.358C143.34 74.3655 143.539 74.3125 143.706 74.1989C143.876 74.0852 144.015 73.892 144.121 73.6193L144.263 73.25L141.132 64.2727H143.678L145.484 70.6818H145.575L147.399 64.2727H149.962L146.57 73.9432C146.407 74.4129 146.185 74.822 145.905 75.1705C145.628 75.5227 145.278 75.7936 144.854 75.983C144.429 76.1761 143.918 76.2727 143.32 76.2727ZM154.862 73.1705C153.98 73.1705 153.216 72.983 152.572 72.608C151.932 72.2292 151.438 71.7027 151.089 71.0284C150.741 70.3504 150.567 69.5644 150.567 68.6705C150.567 67.7689 150.741 66.9811 151.089 66.3068C151.438 65.6288 151.932 65.1023 152.572 64.7273C153.216 64.3485 153.98 64.1591 154.862 64.1591C155.745 64.1591 156.506 64.3485 157.146 64.7273C157.79 65.1023 158.286 65.6288 158.635 66.3068C158.983 66.9811 159.158 67.7689 159.158 68.6705C159.158 69.5644 158.983 70.3504 158.635 71.0284C158.286 71.7027 157.79 72.2292 157.146 72.608C156.506 72.983 155.745 73.1705 154.862 73.1705ZM154.874 71.2955C155.275 71.2955 155.61 71.1818 155.879 70.9545C156.148 70.7235 156.351 70.4091 156.487 70.0114C156.627 69.6136 156.697 69.161 156.697 68.6534C156.697 68.1458 156.627 67.6932 156.487 67.2955C156.351 66.8977 156.148 66.5833 155.879 66.3523C155.61 66.1212 155.275 66.0057 154.874 66.0057C154.468 66.0057 154.127 66.1212 153.851 66.3523C153.578 66.5833 153.372 66.8977 153.232 67.2955C153.095 67.6932 153.027 68.1458 153.027 68.6534C153.027 69.161 153.095 69.6136 153.232 70.0114C153.372 70.4091 153.578 70.7235 153.851 70.9545C154.127 71.1818 154.468 71.2955 154.874 71.2955ZM166.328 69.2841V64.2727H168.749V73H166.425V71.4148H166.334C166.137 71.9261 165.809 72.3371 165.351 72.6477C164.896 72.9583 164.341 73.1136 163.686 73.1136C163.103 73.1136 162.589 72.9811 162.146 72.7159C161.703 72.4508 161.357 72.0739 161.107 71.5852C160.86 71.0966 160.735 70.5114 160.732 69.8295V64.2727H163.152V69.3977C163.156 69.9129 163.294 70.3201 163.567 70.6193C163.839 70.9186 164.205 71.0682 164.663 71.0682C164.955 71.0682 165.228 71.0019 165.482 70.8693C165.735 70.733 165.94 70.5322 166.095 70.267C166.254 70.0019 166.332 69.6742 166.328 69.2841ZM170.685 73V64.2727H173.031V65.7955H173.122C173.281 65.2538 173.548 64.8447 173.923 64.5682C174.298 64.2879 174.73 64.1477 175.219 64.1477C175.34 64.1477 175.471 64.1553 175.611 64.1705C175.751 64.1856 175.874 64.2064 175.98 64.233V66.3807C175.866 66.3466 175.709 66.3163 175.509 66.2898C175.308 66.2633 175.124 66.25 174.957 66.25C174.601 66.25 174.283 66.3277 174.003 66.483C173.726 66.6345 173.507 66.8466 173.344 67.1193C173.185 67.392 173.105 67.7064 173.105 68.0625V73H170.685ZM185.577 64.2727V66.0909H180.321V64.2727H185.577ZM181.514 62.1818H183.935V70.3182C183.935 70.5417 183.969 70.7159 184.037 70.8409C184.105 70.9621 184.2 71.0473 184.321 71.0966C184.446 71.1458 184.59 71.1705 184.753 71.1705C184.866 71.1705 184.98 71.161 185.094 71.142C185.207 71.1193 185.295 71.1023 185.355 71.0909L185.736 72.892C185.615 72.9299 185.444 72.9735 185.224 73.0227C185.005 73.0758 184.738 73.108 184.423 73.1193C183.84 73.142 183.329 73.0644 182.889 72.8864C182.454 72.7083 182.115 72.4318 181.872 72.0568C181.63 71.6818 181.51 71.2083 181.514 70.6364V62.1818ZM191.003 73.1705C190.12 73.1705 189.357 72.983 188.713 72.608C188.073 72.2292 187.579 71.7027 187.23 71.0284C186.882 70.3504 186.707 69.5644 186.707 68.6705C186.707 67.7689 186.882 66.9811 187.23 66.3068C187.579 65.6288 188.073 65.1023 188.713 64.7273C189.357 64.3485 190.12 64.1591 191.003 64.1591C191.885 64.1591 192.647 64.3485 193.287 64.7273C193.931 65.1023 194.427 65.6288 194.776 66.3068C195.124 66.9811 195.298 67.7689 195.298 68.6705C195.298 69.5644 195.124 70.3504 194.776 71.0284C194.427 71.7027 193.931 72.2292 193.287 72.608C192.647 72.983 191.885 73.1705 191.003 73.1705ZM191.014 71.2955C191.416 71.2955 191.751 71.1818 192.02 70.9545C192.289 70.7235 192.491 70.4091 192.628 70.0114C192.768 69.6136 192.838 69.161 192.838 68.6534C192.838 68.1458 192.768 67.6932 192.628 67.2955C192.491 66.8977 192.289 66.5833 192.02 66.3523C191.751 66.1212 191.416 66.0057 191.014 66.0057C190.609 66.0057 190.268 66.1212 189.991 66.3523C189.719 66.5833 189.512 66.8977 189.372 67.2955C189.236 67.6932 189.168 68.1458 189.168 68.6534C189.168 69.161 189.236 69.6136 189.372 70.0114C189.512 70.4091 189.719 70.7235 189.991 70.9545C190.268 71.1818 190.609 71.2955 191.014 71.2955ZM201.514 64.2727V66.0909H196.259V64.2727H201.514ZM197.452 62.1818H199.872V70.3182C199.872 70.5417 199.906 70.7159 199.974 70.8409C200.043 70.9621 200.137 71.0473 200.259 71.0966C200.384 71.1458 200.527 71.1705 200.69 71.1705C200.804 71.1705 200.918 71.161 201.031 71.142C201.145 71.1193 201.232 71.1023 201.293 71.0909L201.673 72.892C201.552 72.9299 201.382 72.9735 201.162 73.0227C200.942 73.0758 200.675 73.108 200.361 73.1193C199.777 73.142 199.266 73.0644 198.827 72.8864C198.391 72.7083 198.052 72.4318 197.81 72.0568C197.567 71.6818 197.448 71.2083 197.452 70.6364V62.1818ZM205.58 73.1648C205.023 73.1648 204.527 73.0682 204.091 72.875C203.655 72.678 203.311 72.3883 203.057 72.0057C202.807 71.6193 202.682 71.1383 202.682 70.5625C202.682 70.0777 202.771 69.6705 202.949 69.3409C203.127 69.0114 203.369 68.7462 203.676 68.5455C203.983 68.3447 204.331 68.1932 204.722 68.0909C205.116 67.9886 205.528 67.9167 205.96 67.875C206.468 67.822 206.877 67.7727 207.188 67.7273C207.498 67.678 207.723 67.6061 207.864 67.5114C208.004 67.4167 208.074 67.2765 208.074 67.0909V67.0568C208.074 66.697 207.96 66.4186 207.733 66.2216C207.509 66.0246 207.191 65.9261 206.778 65.9261C206.343 65.9261 205.996 66.0227 205.739 66.2159C205.481 66.4053 205.311 66.6439 205.227 66.9318L202.989 66.75C203.102 66.2197 203.326 65.7614 203.659 65.375C203.992 64.9848 204.422 64.6856 204.949 64.4773C205.479 64.2652 206.093 64.1591 206.79 64.1591C207.275 64.1591 207.739 64.2159 208.182 64.3295C208.629 64.4432 209.025 64.6193 209.369 64.858C209.718 65.0966 209.992 65.4034 210.193 65.7784C210.394 66.1496 210.494 66.5947 210.494 67.1136V73H208.199V71.7898H208.131C207.991 72.0625 207.803 72.303 207.568 72.5114C207.333 72.7159 207.051 72.8769 206.722 72.9943C206.392 73.108 206.011 73.1648 205.58 73.1648ZM206.273 71.4943C206.629 71.4943 206.943 71.4242 207.216 71.2841C207.489 71.1402 207.703 70.947 207.858 70.7045C208.013 70.4621 208.091 70.1875 208.091 69.8807V68.9545C208.015 69.0038 207.911 69.0492 207.778 69.0909C207.65 69.1288 207.504 69.1648 207.341 69.1989C207.178 69.2292 207.015 69.2576 206.852 69.2841C206.689 69.3068 206.542 69.3277 206.409 69.3466C206.125 69.3883 205.877 69.4545 205.665 69.5455C205.453 69.6364 205.288 69.7595 205.17 69.9148C205.053 70.0663 204.994 70.2557 204.994 70.483C204.994 70.8125 205.114 71.0644 205.352 71.2386C205.595 71.4091 205.902 71.4943 206.273 71.4943ZM214.793 61.3636V73H212.372V61.3636H214.793ZM224.378 73.1705C223.495 73.1705 222.732 72.983 222.088 72.608C221.448 72.2292 220.954 71.7027 220.605 71.0284C220.257 70.3504 220.082 69.5644 220.082 68.6705C220.082 67.7689 220.257 66.9811 220.605 66.3068C220.954 65.6288 221.448 65.1023 222.088 64.7273C222.732 64.3485 223.495 64.1591 224.378 64.1591C225.26 64.1591 226.022 64.3485 226.662 64.7273C227.306 65.1023 227.802 65.6288 228.151 66.3068C228.499 66.9811 228.673 67.7689 228.673 68.6705C228.673 69.5644 228.499 70.3504 228.151 71.0284C227.802 71.7027 227.306 72.2292 226.662 72.608C226.022 72.983 225.26 73.1705 224.378 73.1705ZM224.389 71.2955C224.791 71.2955 225.126 71.1818 225.395 70.9545C225.664 70.7235 225.866 70.4091 226.003 70.0114C226.143 69.6136 226.213 69.161 226.213 68.6534C226.213 68.1458 226.143 67.6932 226.003 67.2955C225.866 66.8977 225.664 66.5833 225.395 66.3523C225.126 66.1212 224.791 66.0057 224.389 66.0057C223.984 66.0057 223.643 66.1212 223.366 66.3523C223.094 66.5833 222.887 66.8977 222.747 67.2955C222.611 67.6932 222.543 68.1458 222.543 68.6534C222.543 69.161 222.611 69.6136 222.747 70.0114C222.887 70.4091 223.094 70.7235 223.366 70.9545C223.643 71.1818 223.984 71.2955 224.389 71.2955ZM230.247 73V64.2727H232.594V65.7955H232.685C232.844 65.2538 233.111 64.8447 233.486 64.5682C233.861 64.2879 234.293 64.1477 234.781 64.1477C234.902 64.1477 235.033 64.1553 235.173 64.1705C235.313 64.1856 235.437 64.2064 235.543 64.233V66.3807C235.429 66.3466 235.272 66.3163 235.071 66.2898C234.87 66.2633 234.687 66.25 234.52 66.25C234.164 66.25 233.846 66.3277 233.565 66.483C233.289 66.6345 233.069 66.8466 232.906 67.1193C232.747 67.392 232.668 67.7064 232.668 68.0625V73H230.247ZM239.604 73.142C238.941 73.142 238.34 72.9716 237.803 72.6307C237.268 72.286 236.844 71.7803 236.53 71.1136C236.219 70.4432 236.064 69.6212 236.064 68.6477C236.064 67.6477 236.225 66.8163 236.547 66.1534C236.869 65.4867 237.297 64.9886 237.831 64.6591C238.369 64.3258 238.958 64.1591 239.598 64.1591C240.087 64.1591 240.494 64.2424 240.82 64.4091C241.149 64.572 241.414 64.7765 241.615 65.0227C241.82 65.2652 241.975 65.5038 242.081 65.7386H242.155V61.3636H244.57V73H242.183V71.6023H242.081C241.967 71.8447 241.806 72.0852 241.598 72.3239C241.393 72.5587 241.126 72.7538 240.797 72.9091C240.471 73.0644 240.073 73.142 239.604 73.142ZM240.371 71.2159C240.761 71.2159 241.09 71.1098 241.359 70.8977C241.632 70.6818 241.84 70.3807 241.984 69.9943C242.132 69.608 242.206 69.1553 242.206 68.6364C242.206 68.1174 242.134 67.6667 241.99 67.2841C241.846 66.9015 241.638 66.6061 241.365 66.3977C241.092 66.1894 240.761 66.0852 240.371 66.0852C239.973 66.0852 239.638 66.1932 239.365 66.4091C239.092 66.625 238.886 66.9242 238.746 67.3068C238.606 67.6894 238.536 68.1326 238.536 68.6364C238.536 69.1439 238.606 69.5928 238.746 69.983C238.89 70.3693 239.096 70.6723 239.365 70.892C239.638 71.108 239.973 71.2159 240.371 71.2159ZM250.537 73.1705C249.639 73.1705 248.866 72.9886 248.219 72.625C247.575 72.2576 247.079 71.7386 246.73 71.0682C246.382 70.3939 246.207 69.5966 246.207 68.6761C246.207 67.7784 246.382 66.9905 246.73 66.3125C247.079 65.6345 247.569 65.1061 248.202 64.7273C248.838 64.3485 249.584 64.1591 250.44 64.1591C251.016 64.1591 251.552 64.2519 252.048 64.4375C252.548 64.6193 252.984 64.8939 253.355 65.2614C253.73 65.6288 254.022 66.0909 254.23 66.6477C254.438 67.2008 254.543 67.8485 254.543 68.5909V69.2557H247.173V67.7557H252.264C252.264 67.4072 252.188 67.0985 252.037 66.8295C251.885 66.5606 251.675 66.3504 251.406 66.1989C251.141 66.0436 250.832 65.9659 250.48 65.9659C250.113 65.9659 249.787 66.0511 249.503 66.2216C249.223 66.3883 249.003 66.6136 248.844 66.8977C248.685 67.178 248.603 67.4905 248.599 67.8352V69.2614C248.599 69.6932 248.679 70.0663 248.838 70.3807C249.001 70.6951 249.23 70.9375 249.526 71.108C249.821 71.2784 250.171 71.3636 250.577 71.3636C250.846 71.3636 251.092 71.3258 251.315 71.25C251.539 71.1742 251.73 71.0606 251.889 70.9091C252.048 70.7576 252.17 70.572 252.253 70.3523L254.491 70.5C254.378 71.0379 254.145 71.5076 253.793 71.9091C253.444 72.3068 252.993 72.6174 252.44 72.8409C251.891 73.0606 251.257 73.1705 250.537 73.1705ZM256.122 73V64.2727H258.469V65.7955H258.56C258.719 65.2538 258.986 64.8447 259.361 64.5682C259.736 64.2879 260.168 64.1477 260.656 64.1477C260.777 64.1477 260.908 64.1553 261.048 64.1705C261.188 64.1856 261.312 64.2064 261.418 64.233V66.3807C261.304 66.3466 261.147 66.3163 260.946 66.2898C260.745 66.2633 260.562 66.25 260.395 66.25C260.039 66.25 259.721 66.3277 259.44 66.483C259.164 66.6345 258.944 66.8466 258.781 67.1193C258.622 67.392 258.543 67.7064 258.543 68.0625V73H256.122ZM266.372 73V64.2727H268.793V73H266.372ZM267.588 63.1477C267.228 63.1477 266.92 63.0284 266.662 62.7898C266.408 62.5473 266.281 62.2576 266.281 61.9205C266.281 61.5871 266.408 61.3011 266.662 61.0625C266.92 60.8201 267.228 60.6989 267.588 60.6989C267.948 60.6989 268.255 60.8201 268.509 61.0625C268.766 61.3011 268.895 61.5871 268.895 61.9205C268.895 62.2576 268.766 62.5473 268.509 62.7898C268.255 63.0284 267.948 63.1477 267.588 63.1477ZM273.152 67.9545V73H270.732V64.2727H273.038V65.8125H273.141C273.334 65.3049 273.658 64.9034 274.112 64.608C274.567 64.3087 275.118 64.1591 275.766 64.1591C276.372 64.1591 276.9 64.2917 277.351 64.5568C277.802 64.822 278.152 65.2008 278.402 65.6932C278.652 66.1818 278.777 66.7652 278.777 67.4432V73H276.357V67.875C276.36 67.3409 276.224 66.9242 275.947 66.625C275.671 66.322 275.29 66.1705 274.805 66.1705C274.48 66.1705 274.192 66.2405 273.942 66.3807C273.696 66.5208 273.502 66.7254 273.362 66.9943C273.226 67.2595 273.156 67.5795 273.152 67.9545ZM287.946 66.7614L285.73 66.8977C285.692 66.7083 285.611 66.5379 285.486 66.3864C285.361 66.2311 285.196 66.108 284.991 66.017C284.791 65.9223 284.55 65.875 284.27 65.875C283.895 65.875 283.579 65.9545 283.321 66.1136C283.063 66.2689 282.935 66.4773 282.935 66.7386C282.935 66.947 283.018 67.1231 283.185 67.267C283.351 67.411 283.637 67.5265 284.043 67.6136L285.622 67.9318C286.471 68.1061 287.103 68.3864 287.52 68.7727C287.937 69.1591 288.145 69.6667 288.145 70.2955C288.145 70.8674 287.976 71.3693 287.639 71.8011C287.306 72.233 286.848 72.5701 286.264 72.8125C285.685 73.0511 285.016 73.1705 284.259 73.1705C283.103 73.1705 282.183 72.9299 281.497 72.4489C280.815 71.964 280.416 71.3049 280.298 70.4716L282.679 70.3466C282.751 70.6989 282.925 70.9678 283.202 71.1534C283.478 71.3352 283.832 71.4261 284.264 71.4261C284.688 71.4261 285.029 71.3447 285.287 71.1818C285.548 71.0152 285.681 70.8011 285.685 70.5398C285.681 70.3201 285.588 70.1402 285.406 70C285.224 69.8561 284.944 69.7462 284.565 69.6705L283.054 69.3693C282.202 69.1989 281.567 68.9034 281.151 68.483C280.738 68.0625 280.531 67.5265 280.531 66.875C280.531 66.3144 280.683 65.8314 280.986 65.4261C281.293 65.0208 281.723 64.7083 282.276 64.4886C282.832 64.2689 283.484 64.1591 284.23 64.1591C285.332 64.1591 286.2 64.392 286.832 64.858C287.469 65.3239 287.84 65.9583 287.946 66.7614ZM294.311 64.2727V66.0909H289.055V64.2727H294.311ZM290.249 62.1818H292.669V70.3182C292.669 70.5417 292.703 70.7159 292.771 70.8409C292.839 70.9621 292.934 71.0473 293.055 71.0966C293.18 71.1458 293.324 71.1705 293.487 71.1705C293.601 71.1705 293.714 71.161 293.828 71.142C293.942 71.1193 294.029 71.1023 294.089 71.0909L294.47 72.892C294.349 72.9299 294.179 72.9735 293.959 73.0227C293.739 73.0758 293.472 73.108 293.158 73.1193C292.574 73.142 292.063 73.0644 291.624 72.8864C291.188 72.7083 290.849 72.4318 290.607 72.0568C290.364 71.6818 290.245 71.2083 290.249 70.6364V62.1818ZM298.376 73.1648C297.82 73.1648 297.323 73.0682 296.888 72.875C296.452 72.678 296.107 72.3883 295.854 72.0057C295.604 71.6193 295.479 71.1383 295.479 70.5625C295.479 70.0777 295.568 69.6705 295.746 69.3409C295.924 69.0114 296.166 68.7462 296.473 68.5455C296.78 68.3447 297.128 68.1932 297.518 68.0909C297.912 67.9886 298.325 67.9167 298.757 67.875C299.265 67.822 299.674 67.7727 299.984 67.7273C300.295 67.678 300.52 67.6061 300.661 67.5114C300.801 67.4167 300.871 67.2765 300.871 67.0909V67.0568C300.871 66.697 300.757 66.4186 300.53 66.2216C300.306 66.0246 299.988 65.9261 299.575 65.9261C299.14 65.9261 298.793 66.0227 298.536 66.2159C298.278 66.4053 298.107 66.6439 298.024 66.9318L295.786 66.75C295.899 66.2197 296.123 65.7614 296.456 65.375C296.789 64.9848 297.219 64.6856 297.746 64.4773C298.276 64.2652 298.89 64.1591 299.587 64.1591C300.071 64.1591 300.536 64.2159 300.979 64.3295C301.426 64.4432 301.821 64.6193 302.166 64.858C302.515 65.0966 302.789 65.4034 302.99 65.7784C303.191 66.1496 303.291 66.5947 303.291 67.1136V73H300.996V71.7898H300.928C300.787 72.0625 300.6 72.303 300.365 72.5114C300.13 72.7159 299.848 72.8769 299.518 72.9943C299.189 73.108 298.808 73.1648 298.376 73.1648ZM299.07 71.4943C299.426 71.4943 299.74 71.4242 300.013 71.2841C300.286 71.1402 300.5 70.947 300.655 70.7045C300.81 70.4621 300.888 70.1875 300.888 69.8807V68.9545C300.812 69.0038 300.708 69.0492 300.575 69.0909C300.446 69.1288 300.301 69.1648 300.138 69.1989C299.975 69.2292 299.812 69.2576 299.649 69.2841C299.486 69.3068 299.339 69.3277 299.206 69.3466C298.922 69.3883 298.674 69.4545 298.462 69.5455C298.25 69.6364 298.085 69.7595 297.967 69.9148C297.85 70.0663 297.791 70.2557 297.791 70.483C297.791 70.8125 297.911 71.0644 298.149 71.2386C298.392 71.4091 298.698 71.4943 299.07 71.4943ZM307.589 67.9545V73H305.169V64.2727H307.476V65.8125H307.578C307.771 65.3049 308.095 64.9034 308.55 64.608C309.004 64.3087 309.555 64.1591 310.203 64.1591C310.809 64.1591 311.338 64.2917 311.788 64.5568C312.239 64.822 312.589 65.2008 312.839 65.6932C313.089 66.1818 313.214 66.7652 313.214 67.4432V73H310.794V67.875C310.798 67.3409 310.661 66.9242 310.385 66.625C310.108 66.322 309.728 66.1705 309.243 66.1705C308.917 66.1705 308.629 66.2405 308.379 66.3807C308.133 66.5208 307.94 66.7254 307.8 66.9943C307.663 67.2595 307.593 67.5795 307.589 67.9545ZM319.764 64.2727V66.0909H314.509V64.2727H319.764ZM315.702 62.1818H318.122V70.3182C318.122 70.5417 318.156 70.7159 318.224 70.8409C318.293 70.9621 318.387 71.0473 318.509 71.0966C318.634 71.1458 318.777 71.1705 318.94 71.1705C319.054 71.1705 319.168 71.161 319.281 71.142C319.395 71.1193 319.482 71.1023 319.543 71.0909L319.923 72.892C319.802 72.9299 319.632 72.9735 319.412 73.0227C319.192 73.0758 318.925 73.108 318.611 73.1193C318.027 73.142 317.516 73.0644 317.077 72.8864C316.641 72.7083 316.302 72.4318 316.06 72.0568C315.817 71.6818 315.698 71.2083 315.702 70.6364V62.1818ZM323.949 61.3636V73H321.528V61.3636H323.949ZM327.382 76.2727C327.075 76.2727 326.787 76.2481 326.518 76.1989C326.253 76.1534 326.034 76.0947 325.859 76.0227L326.405 74.2159C326.689 74.303 326.945 74.3504 327.172 74.358C327.403 74.3655 327.602 74.3125 327.768 74.1989C327.939 74.0852 328.077 73.892 328.183 73.6193L328.325 73.25L325.195 64.2727H327.74L329.547 70.6818H329.638L331.462 64.2727H334.024L330.632 73.9432C330.469 74.4129 330.248 74.822 329.967 75.1705C329.691 75.5227 329.34 75.7936 328.916 75.983C328.492 76.1761 327.981 76.2727 327.382 76.2727ZM336.131 73.1477C335.756 73.1477 335.434 73.0152 335.165 72.75C334.9 72.4811 334.767 72.1591 334.767 71.7841C334.767 71.4129 334.9 71.0947 335.165 70.8295C335.434 70.5644 335.756 70.4318 336.131 70.4318C336.494 70.4318 336.813 70.5644 337.085 70.8295C337.358 71.0947 337.494 71.4129 337.494 71.7841C337.494 72.0341 337.43 72.2633 337.301 72.4716C337.176 72.6761 337.011 72.8409 336.807 72.9659C336.602 73.0871 336.377 73.1477 336.131 73.1477Z" fill="#231C1C"/>
<path d="M143.625 138.479C143.625 136.299 143.625 135.209 144.302 134.532C144.98 133.854 146.07 133.854 148.25 133.854H150.562C152.743 133.854 153.833 133.854 154.51 134.532C155.187 135.209 155.187 136.299 155.187 138.479V142.333C155.187 144.514 155.187 145.604 154.51 146.281C153.833 146.958 152.743 146.958 150.562 146.958H148.25C146.07 146.958 144.98 146.958 144.302 146.281C143.625 145.604 143.625 144.514 143.625 142.333V138.479Z" stroke="#1C274C" stroke-width="1.15625"/>
<path opacity="0.5" d="M143.625 144.646C142.348 144.646 141.312 143.61 141.312 142.333V137.708C141.312 134.801 141.312 133.348 142.216 132.445C143.119 131.542 144.572 131.542 147.479 131.542H150.562C151.84 131.542 152.875 132.577 152.875 133.854" stroke="#1C274C" stroke-width="1.15625"/>
<rect x="299" y="123" width="107" height="32" rx="5" fill="#B8C6F9"/>
<path d="M309.55 143V135.727H312.555C313.099 135.727 313.569 135.826 313.964 136.022C314.362 136.216 314.669 136.496 314.884 136.86C315.1 137.222 315.207 137.652 315.207 138.149C315.207 138.653 315.097 139.082 314.877 139.435C314.657 139.785 314.344 140.053 313.94 140.237C313.535 140.42 313.055 140.511 312.501 140.511H310.602V139.126H312.175C312.44 139.126 312.661 139.091 312.839 139.023C313.019 138.952 313.155 138.845 313.247 138.703C313.339 138.559 313.386 138.374 313.386 138.149C313.386 137.924 313.339 137.738 313.247 137.592C313.155 137.442 313.019 137.331 312.839 137.258C312.659 137.182 312.438 137.144 312.175 137.144H311.308V143H309.55ZM313.645 139.676L315.456 143H313.538L311.763 139.676H313.645ZM318.614 143.103C318.043 143.103 317.551 142.991 317.137 142.766C316.725 142.538 316.407 142.215 316.185 141.796C315.965 141.375 315.855 140.874 315.855 140.294C315.855 139.731 315.966 139.238 316.188 138.817C316.411 138.393 316.725 138.064 317.129 137.83C317.534 137.593 318.011 137.474 318.561 137.474C318.949 137.474 319.304 137.535 319.626 137.656C319.948 137.776 320.226 137.955 320.46 138.192C320.695 138.429 320.877 138.721 321.007 139.069C321.137 139.415 321.203 139.811 321.203 140.259V140.692H316.462V139.683H319.587C319.584 139.499 319.541 139.334 319.455 139.19C319.37 139.045 319.253 138.933 319.104 138.852C318.957 138.769 318.788 138.728 318.596 138.728C318.402 138.728 318.228 138.772 318.074 138.859C317.92 138.945 317.798 139.062 317.708 139.211C317.618 139.358 317.571 139.525 317.566 139.712V140.738C317.566 140.96 317.61 141.156 317.698 141.324C317.785 141.49 317.91 141.619 318.07 141.711C318.231 141.803 318.423 141.849 318.646 141.849C318.8 141.849 318.939 141.828 319.065 141.786C319.19 141.743 319.298 141.68 319.388 141.597C319.478 141.514 319.545 141.413 319.59 141.292L321.185 141.338C321.119 141.696 320.973 142.007 320.748 142.272C320.526 142.535 320.233 142.74 319.871 142.886C319.509 143.031 319.09 143.103 318.614 143.103ZM324.632 145.159C324.114 145.159 323.67 145.087 323.3 144.942C322.931 144.798 322.641 144.6 322.43 144.349C322.22 144.098 322.093 143.814 322.05 143.497L323.695 143.405C323.725 143.516 323.782 143.613 323.865 143.696C323.95 143.779 324.06 143.843 324.195 143.888C324.333 143.933 324.494 143.955 324.678 143.955C324.969 143.955 325.21 143.884 325.399 143.742C325.591 143.603 325.687 143.357 325.687 143.007V142.048H325.626C325.558 142.216 325.454 142.367 325.314 142.499C325.174 142.632 325 142.736 324.792 142.812C324.586 142.888 324.349 142.925 324.082 142.925C323.684 142.925 323.319 142.833 322.988 142.648C322.659 142.461 322.395 142.173 322.196 141.782C322 141.389 321.901 140.884 321.901 140.266C321.901 139.629 322.003 139.104 322.207 138.692C322.41 138.278 322.677 137.972 323.006 137.773C323.337 137.574 323.693 137.474 324.075 137.474C324.361 137.474 324.606 137.524 324.81 137.624C325.016 137.721 325.185 137.846 325.317 138C325.45 138.154 325.551 138.314 325.619 138.479H325.669V137.545H327.398V143.021C327.398 143.483 327.282 143.872 327.05 144.19C326.818 144.507 326.494 144.747 326.077 144.911C325.661 145.076 325.179 145.159 324.632 145.159ZM324.685 141.661C324.896 141.661 325.076 141.606 325.225 141.494C325.374 141.383 325.489 141.223 325.57 141.015C325.65 140.807 325.69 140.557 325.69 140.266C325.69 139.97 325.65 139.715 325.57 139.502C325.491 139.287 325.377 139.121 325.225 139.005C325.076 138.889 324.896 138.831 324.685 138.831C324.47 138.831 324.288 138.89 324.138 139.009C323.989 139.127 323.876 139.294 323.798 139.509C323.722 139.722 323.684 139.974 323.684 140.266C323.684 140.557 323.723 140.807 323.801 141.015C323.879 141.223 323.992 141.383 324.138 141.494C324.288 141.606 324.47 141.661 324.685 141.661ZM328.506 143V137.545H330.242V143H328.506ZM329.376 136.91C329.132 136.91 328.922 136.829 328.747 136.668C328.572 136.505 328.484 136.308 328.484 136.079C328.484 135.852 328.572 135.657 328.747 135.496C328.922 135.333 329.132 135.251 329.376 135.251C329.622 135.251 329.831 135.333 330.004 135.496C330.179 135.657 330.267 135.852 330.267 136.079C330.267 136.308 330.179 136.505 330.004 136.668C329.831 136.829 329.622 136.91 329.376 136.91ZM336.109 139.211L334.515 139.254C334.498 139.14 334.453 139.039 334.38 138.952C334.307 138.862 334.211 138.792 334.092 138.742C333.976 138.69 333.841 138.664 333.688 138.664C333.486 138.664 333.315 138.704 333.173 138.785C333.033 138.865 332.964 138.974 332.967 139.112C332.964 139.218 333.007 139.31 333.094 139.388C333.184 139.467 333.344 139.529 333.574 139.577L334.625 139.776C335.17 139.88 335.574 140.053 335.839 140.294C336.107 140.536 336.242 140.855 336.244 141.253C336.242 141.627 336.131 141.952 335.911 142.229C335.693 142.506 335.394 142.722 335.016 142.876C334.637 143.027 334.204 143.103 333.716 143.103C332.937 143.103 332.323 142.943 331.873 142.624C331.425 142.302 331.17 141.871 331.106 141.331L332.821 141.288C332.859 141.487 332.957 141.639 333.116 141.743C333.274 141.847 333.477 141.899 333.723 141.899C333.946 141.899 334.127 141.858 334.266 141.775C334.406 141.692 334.477 141.582 334.479 141.445C334.477 141.321 334.423 141.223 334.316 141.15C334.21 141.074 334.043 141.015 333.815 140.972L332.864 140.791C332.317 140.692 331.91 140.508 331.642 140.241C331.375 139.971 331.242 139.628 331.244 139.211C331.242 138.846 331.339 138.535 331.536 138.277C331.732 138.017 332.011 137.818 332.374 137.68C332.736 137.543 333.163 137.474 333.656 137.474C334.394 137.474 334.977 137.629 335.403 137.94C335.829 138.247 336.064 138.671 336.109 139.211ZM340.178 137.545V138.824H336.737V137.545H340.178ZM337.458 136.239H339.194V141.285C339.194 141.391 339.211 141.478 339.244 141.544C339.28 141.608 339.331 141.654 339.397 141.683C339.463 141.709 339.542 141.722 339.635 141.722C339.701 141.722 339.771 141.716 339.844 141.704C339.92 141.69 339.977 141.678 340.015 141.668L340.278 142.922C340.195 142.946 340.077 142.975 339.926 143.011C339.777 143.046 339.598 143.069 339.39 143.078C338.983 143.097 338.633 143.05 338.342 142.936C338.053 142.82 337.832 142.64 337.678 142.396C337.527 142.152 337.453 141.846 337.458 141.477V136.239ZM343.555 143.103C342.985 143.103 342.492 142.991 342.078 142.766C341.666 142.538 341.349 142.215 341.126 141.796C340.906 141.375 340.796 140.874 340.796 140.294C340.796 139.731 340.907 139.238 341.13 138.817C341.352 138.393 341.666 138.064 342.071 137.83C342.476 137.593 342.953 137.474 343.502 137.474C343.89 137.474 344.245 137.535 344.567 137.656C344.889 137.776 345.167 137.955 345.402 138.192C345.636 138.429 345.818 138.721 345.949 139.069C346.079 139.415 346.144 139.811 346.144 140.259V140.692H341.403V139.683H344.528C344.526 139.499 344.482 139.334 344.397 139.19C344.312 139.045 344.194 138.933 344.045 138.852C343.898 138.769 343.729 138.728 343.537 138.728C343.343 138.728 343.169 138.772 343.015 138.859C342.862 138.945 342.74 139.062 342.65 139.211C342.56 139.358 342.512 139.525 342.508 139.712V140.738C342.508 140.96 342.551 141.156 342.639 141.324C342.727 141.49 342.851 141.619 343.012 141.711C343.173 141.803 343.365 141.849 343.587 141.849C343.741 141.849 343.881 141.828 344.006 141.786C344.132 141.743 344.239 141.68 344.329 141.597C344.419 141.514 344.487 141.413 344.532 141.292L346.126 141.338C346.06 141.696 345.914 142.007 345.689 142.272C345.467 142.535 345.175 142.74 344.812 142.886C344.45 143.031 344.031 143.103 343.555 143.103ZM347.031 143V137.545H348.718V138.54H348.775C348.874 138.18 349.036 137.912 349.261 137.737C349.486 137.56 349.748 137.471 350.046 137.471C350.126 137.471 350.209 137.477 350.294 137.489C350.38 137.498 350.459 137.513 350.532 137.535V139.044C350.449 139.016 350.341 138.993 350.206 138.977C350.073 138.96 349.955 138.952 349.85 138.952C349.645 138.952 349.459 138.998 349.293 139.09C349.13 139.18 349.001 139.307 348.906 139.47C348.814 139.631 348.767 139.821 348.767 140.038V143H347.031ZM353.506 143.103C352.936 143.103 352.443 142.991 352.029 142.766C351.617 142.538 351.3 142.215 351.077 141.796C350.857 141.375 350.747 140.874 350.747 140.294C350.747 139.731 350.858 139.238 351.081 138.817C351.304 138.393 351.617 138.064 352.022 137.83C352.427 137.593 352.904 137.474 353.453 137.474C353.841 137.474 354.196 137.535 354.518 137.656C354.84 137.776 355.119 137.955 355.353 138.192C355.587 138.429 355.77 138.721 355.9 139.069C356.03 139.415 356.095 139.811 356.095 140.259V140.692H351.354V139.683H354.479C354.477 139.499 354.433 139.334 354.348 139.19C354.263 139.045 354.146 138.933 353.996 138.852C353.85 138.769 353.68 138.728 353.489 138.728C353.295 138.728 353.121 138.772 352.967 138.859C352.813 138.945 352.691 139.062 352.601 139.211C352.511 139.358 352.464 139.525 352.459 139.712V140.738C352.459 140.96 352.503 141.156 352.59 141.324C352.678 141.49 352.802 141.619 352.963 141.711C353.124 141.803 353.316 141.849 353.538 141.849C353.692 141.849 353.832 141.828 353.957 141.786C354.083 141.743 354.191 141.68 354.281 141.597C354.371 141.514 354.438 141.413 354.483 141.292L356.077 141.338C356.011 141.696 355.866 142.007 355.641 142.272C355.418 142.535 355.126 142.74 354.763 142.886C354.401 143.031 353.982 143.103 353.506 143.103ZM365.995 139.364C365.995 140.164 365.841 140.842 365.533 141.398C365.225 141.955 364.809 142.377 364.283 142.666C363.76 142.955 363.173 143.099 362.522 143.099C361.868 143.099 361.28 142.954 360.757 142.663C360.234 142.371 359.818 141.949 359.51 141.395C359.205 140.839 359.052 140.161 359.052 139.364C359.052 138.563 359.205 137.885 359.51 137.329C359.818 136.772 360.234 136.35 360.757 136.061C361.28 135.772 361.868 135.628 362.522 135.628C363.173 135.628 363.76 135.772 364.283 136.061C364.809 136.35 365.225 136.772 365.533 137.329C365.841 137.885 365.995 138.563 365.995 139.364ZM364.198 139.364C364.198 138.89 364.131 138.49 363.996 138.163C363.863 137.837 363.671 137.589 363.42 137.421C363.172 137.253 362.872 137.169 362.522 137.169C362.174 137.169 361.874 137.253 361.623 137.421C361.372 137.589 361.18 137.837 361.045 138.163C360.912 138.49 360.846 138.89 360.846 139.364C360.846 139.837 360.912 140.237 361.045 140.564C361.18 140.891 361.372 141.138 361.623 141.306C361.874 141.474 362.174 141.558 362.522 141.558C362.872 141.558 363.172 141.474 363.42 141.306C363.671 141.138 363.863 140.891 363.996 140.564C364.131 140.237 364.198 139.837 364.198 139.364ZM368.758 139.889V143H367.021V137.545H368.672V138.547H368.733C368.854 138.213 369.059 137.951 369.351 137.762C369.642 137.57 369.989 137.474 370.391 137.474C370.775 137.474 371.107 137.561 371.389 137.734C371.673 137.904 371.893 138.143 372.05 138.451C372.208 138.756 372.286 139.114 372.284 139.523V143H370.547V139.864C370.55 139.561 370.473 139.325 370.317 139.154C370.163 138.984 369.948 138.898 369.674 138.898C369.492 138.898 369.331 138.939 369.191 139.019C369.054 139.097 368.947 139.21 368.871 139.357C368.798 139.503 368.76 139.681 368.758 139.889ZM377.081 143H375.191L377.645 135.727H379.985L382.439 143H380.55L378.842 137.56H378.785L377.081 143ZM376.828 140.138H380.777V141.473H376.828V140.138ZM383.222 145.045V137.545H384.941V138.479H384.994C385.065 138.314 385.166 138.154 385.296 138C385.429 137.846 385.597 137.721 385.8 137.624C386.006 137.524 386.253 137.474 386.539 137.474C386.918 137.474 387.272 137.574 387.601 137.773C387.932 137.972 388.2 138.278 388.403 138.692C388.607 139.107 388.709 139.635 388.709 140.276C388.709 140.894 388.611 141.411 388.414 141.828C388.22 142.245 387.957 142.557 387.626 142.766C387.297 142.974 386.931 143.078 386.528 143.078C386.254 143.078 386.016 143.033 385.815 142.943C385.613 142.853 385.444 142.735 385.307 142.588C385.172 142.441 385.068 142.284 384.994 142.116H384.959V145.045H383.222ZM384.923 140.273C384.923 140.566 384.962 140.822 385.04 141.04C385.121 141.258 385.236 141.427 385.385 141.548C385.536 141.666 385.718 141.725 385.928 141.725C386.141 141.725 386.322 141.666 386.472 141.548C386.621 141.427 386.733 141.258 386.809 141.04C386.887 140.822 386.926 140.566 386.926 140.273C386.926 139.979 386.887 139.725 386.809 139.509C386.733 139.294 386.621 139.127 386.472 139.009C386.325 138.89 386.144 138.831 385.928 138.831C385.715 138.831 385.534 138.889 385.385 139.005C385.236 139.121 385.121 139.287 385.04 139.502C384.962 139.718 384.923 139.974 384.923 140.273ZM389.619 145.045V137.545H391.338V138.479H391.391C391.462 138.314 391.562 138.154 391.693 138C391.825 137.846 391.993 137.721 392.197 137.624C392.403 137.524 392.649 137.474 392.936 137.474C393.314 137.474 393.668 137.574 393.997 137.773C394.329 137.972 394.596 138.278 394.8 138.692C395.003 139.107 395.105 139.635 395.105 140.276C395.105 140.894 395.007 141.411 394.811 141.828C394.616 142.245 394.354 142.557 394.022 142.766C393.693 142.974 393.327 143.078 392.925 143.078C392.65 143.078 392.412 143.033 392.211 142.943C392.01 142.853 391.841 142.735 391.703 142.588C391.568 142.441 391.464 142.284 391.391 142.116H391.355V145.045H389.619ZM391.32 140.273C391.32 140.566 391.359 140.822 391.437 141.04C391.517 141.258 391.632 141.427 391.781 141.548C391.933 141.666 392.114 141.725 392.325 141.725C392.538 141.725 392.719 141.666 392.868 141.548C393.017 141.427 393.13 141.258 393.205 141.04C393.284 140.822 393.323 140.566 393.323 140.273C393.323 139.979 393.284 139.725 393.205 139.509C393.13 139.294 393.017 139.127 392.868 139.009C392.721 138.89 392.54 138.831 392.325 138.831C392.112 138.831 391.931 138.889 391.781 139.005C391.632 139.121 391.517 139.287 391.437 139.502C391.359 139.718 391.32 139.974 391.32 140.273Z" fill="#1C274C" fill-opacity="0.93"/>
<defs>
<linearGradient id="paint0_linear_56_37" x1="0.5" y1="83" x2="426.5" y2="83" gradientUnits="userSpaceOnUse">
<stop offset="0.252347" stop-color="#DCEBEC"/>
<stop offset="0.88615" stop-color="white"/>
</linearGradient>
</defs>
</svg>
