<svg width="427" height="166" viewBox="0 0 427 166" fill="none" xmlns="http://www.w3.org/2000/svg">
<path d="M0.5 5C0.5 2.23857 2.73858 0 5.5 0H421.5C424.261 0 426.5 2.23858 426.5 5V91.3169C426.5 93.2589 425.358 95.0121 423.783 96.1485C421.379 97.8834 418.281 100.928 418.5 105C418.724 109.166 422.347 113.218 424.64 115.383C425.771 116.451 426.5 117.912 426.5 119.468V161C426.5 163.761 424.261 166 421.5 166H5.50001C2.73858 166 0.5 163.761 0.5 161V120.38C0.5 118.597 1.45485 116.955 2.89391 115.903C5.9039 113.702 10.6632 109.497 10.5 105C10.3577 101.081 6.47451 98.1498 3.58996 96.5054C1.79 95.4793 0.5 93.6318 0.5 91.5599V5Z" fill="url(#paint0_linear_56_15)"/>
<line x1="13.9999" y1="106.25" x2="417.006" y2="106.25" stroke="#77AAD4" stroke-dasharray="2 2"/>
<path d="M409.414 41L411.99 37.025C412.3 36.5468 412.384 35.9784 412.224 35.4447C412.065 34.911 411.674 34.4558 411.139 34.1792L406.682 31.8792V27.2959C406.682 26.7433 406.436 26.2134 405.999 25.8227C405.561 25.432 404.967 25.2125 404.349 25.2125H399.218L396.644 21.2355C396.333 20.7582 395.824 20.4094 395.228 20.2646C394.932 20.193 394.623 20.1745 394.319 20.2103C394.015 20.2461 393.722 20.3353 393.457 20.473L389 22.773L384.543 20.4709C384.007 20.1946 383.371 20.1198 382.773 20.2628C382.175 20.4058 381.665 20.7549 381.356 21.2334L378.78 25.2125H373.649C373.03 25.2125 372.437 25.432 371.999 25.8227C371.561 26.2134 371.316 26.7433 371.316 27.2959V31.8771L366.859 34.1771C366.593 34.3137 366.36 34.4958 366.173 34.7131C365.986 34.9303 365.849 35.1784 365.77 35.443C365.691 35.7077 365.671 35.9837 365.712 36.2552C365.753 36.5267 365.853 36.7883 366.007 37.025L368.583 41L366.007 44.975C365.699 45.4537 365.616 46.0218 365.775 46.5552C365.934 47.0887 366.323 47.5444 366.857 47.823L371.313 50.123V54.7042C371.313 55.2567 371.559 55.7867 371.997 56.1774C372.434 56.5681 373.028 56.7875 373.647 56.7875H378.78L381.356 60.7667C381.563 61.082 381.858 61.3439 382.212 61.5265C382.566 61.7091 382.968 61.8063 383.377 61.8084C383.783 61.8084 384.186 61.7126 384.546 61.5271L388.998 59.2271L393.454 61.5271C393.99 61.803 394.627 61.8779 395.224 61.7353C395.822 61.5928 396.331 61.2444 396.642 60.7667L399.215 56.7875H404.346C404.965 56.7875 405.559 56.5681 405.996 56.1774C406.434 55.7867 406.68 55.2567 406.68 54.7042V50.123L411.136 47.823C411.402 47.686 411.634 47.5037 411.821 47.2864C412.007 47.0691 412.144 46.8211 412.223 46.5566C412.302 46.2921 412.322 46.0163 412.282 45.7449C412.242 45.4736 412.142 45.2119 411.988 44.975L409.414 41ZM383.164 30.5625C384.093 30.5628 384.983 30.8924 385.64 31.4789C386.296 32.0653 386.665 32.8606 386.664 33.6896C386.664 34.5187 386.295 35.3137 385.638 35.8998C384.981 36.4858 384.091 36.8149 383.162 36.8146C382.233 36.8144 381.343 36.4847 380.687 35.8983C380.03 35.3119 379.662 34.5166 379.662 33.6875C379.662 32.8585 380.031 32.0635 380.688 31.4774C381.345 30.8914 382.236 30.5623 383.164 30.5625ZM383.864 50.5626L380.131 48.0646L394.131 31.398L397.864 33.8959L383.864 50.5626ZM394.831 51.3959C394.371 51.3957 393.916 51.3148 393.491 51.1575C393.067 51.0003 392.681 50.7699 392.356 50.4795C392.031 50.1892 391.773 49.8445 391.597 49.4652C391.421 49.0858 391.331 48.6793 391.331 48.2688C391.331 47.8583 391.422 47.4518 391.598 47.0726C391.774 46.6934 392.032 46.3488 392.357 46.0587C392.682 45.7685 393.069 45.5383 393.493 45.3814C393.918 45.2244 394.374 45.1437 394.833 45.1438C395.762 45.1441 396.652 45.4737 397.309 46.0601C397.965 46.6466 398.334 47.4418 398.333 48.2709C398.333 49.1 397.964 49.895 397.307 50.481C396.65 51.0671 395.76 51.3962 394.831 51.3959Z" fill="#E1E8FF"/>
<defs>
<linearGradient id="paint0_linear_56_15" x1="0.5" y1="83" x2="426.5" y2="83" gradientUnits="userSpaceOnUse">
<stop offset="0.252347" stop-color="#DCEBEC"/>
<stop offset="0.88615" stop-color="white"/>
</linearGradient>
</defs>
</svg>
