<svg width="427" height="166" viewBox="0 0 427 166" fill="none" xmlns="http://www.w3.org/2000/svg">
<path d="M0.5 5C0.5 2.23857 2.73858 0 5.5 0H421.5C424.261 0 426.5 2.23858 426.5 5V91.3169C426.5 93.2589 425.358 95.0121 423.783 96.1485C421.379 97.8834 418.281 100.928 418.5 105C418.724 109.166 422.347 113.218 424.64 115.383C425.771 116.451 426.5 117.912 426.5 119.468V161C426.5 163.761 424.261 166 421.5 166H5.50001C2.73858 166 0.5 163.761 0.5 161V120.38C0.5 118.597 1.45485 116.955 2.89391 115.903C5.9039 113.702 10.6632 109.497 10.5 105C10.3577 101.081 6.47451 98.1498 3.58996 96.5054C1.79 95.4793 0.5 93.6318 0.5 91.5599V5Z" fill="url(#paint0_linear_56_36)"/>
<line x1="13.9999" y1="106.25" x2="417.006" y2="106.25" stroke="#77AAD4" stroke-dasharray="2 2"/>
<path d="M409.414 41L411.99 37.025C412.3 36.5468 412.384 35.9784 412.224 35.4447C412.065 34.911 411.674 34.4558 411.139 34.1792L406.682 31.8792V27.2959C406.682 26.7433 406.436 26.2134 405.999 25.8227C405.561 25.432 404.967 25.2125 404.349 25.2125H399.218L396.644 21.2355C396.333 20.7582 395.824 20.4094 395.228 20.2646C394.932 20.193 394.623 20.1745 394.319 20.2103C394.015 20.2461 393.722 20.3353 393.457 20.473L389 22.773L384.543 20.4709C384.007 20.1946 383.371 20.1198 382.773 20.2628C382.175 20.4058 381.665 20.7549 381.356 21.2334L378.78 25.2125H373.649C373.03 25.2125 372.437 25.432 371.999 25.8227C371.561 26.2134 371.316 26.7433 371.316 27.2959V31.8771L366.859 34.1771C366.593 34.3137 366.36 34.4958 366.173 34.7131C365.986 34.9303 365.849 35.1784 365.77 35.443C365.691 35.7077 365.671 35.9837 365.712 36.2552C365.753 36.5267 365.853 36.7883 366.007 37.025L368.583 41L366.007 44.975C365.699 45.4537 365.616 46.0218 365.775 46.5552C365.934 47.0887 366.323 47.5444 366.857 47.823L371.313 50.123V54.7042C371.313 55.2567 371.559 55.7867 371.997 56.1774C372.434 56.5681 373.028 56.7875 373.647 56.7875H378.78L381.356 60.7667C381.563 61.082 381.858 61.3439 382.212 61.5265C382.566 61.7091 382.968 61.8063 383.377 61.8084C383.783 61.8084 384.186 61.7126 384.546 61.5271L388.998 59.2271L393.454 61.5271C393.99 61.803 394.627 61.8779 395.224 61.7353C395.822 61.5928 396.331 61.2444 396.642 60.7667L399.215 56.7875H404.346C404.965 56.7875 405.559 56.5681 405.996 56.1774C406.434 55.7867 406.68 55.2567 406.68 54.7042V50.123L411.136 47.823C411.402 47.686 411.634 47.5037 411.821 47.2864C412.007 47.0691 412.144 46.8211 412.223 46.5566C412.302 46.2921 412.322 46.0163 412.282 45.7449C412.242 45.4736 412.142 45.2119 411.988 44.975L409.414 41ZM383.164 30.5625C384.093 30.5628 384.983 30.8924 385.64 31.4789C386.296 32.0653 386.665 32.8606 386.664 33.6896C386.664 34.5187 386.295 35.3137 385.638 35.8998C384.981 36.4858 384.091 36.8149 383.162 36.8146C382.233 36.8144 381.343 36.4847 380.687 35.8983C380.03 35.3119 379.662 34.5166 379.662 33.6875C379.662 32.8585 380.031 32.0635 380.688 31.4774C381.345 30.8914 382.236 30.5623 383.164 30.5625ZM383.864 50.5626L380.131 48.0646L394.131 31.398L397.864 33.8959L383.864 50.5626ZM394.831 51.3959C394.371 51.3957 393.916 51.3148 393.491 51.1575C393.067 51.0003 392.681 50.7699 392.356 50.4795C392.031 50.1892 391.773 49.8445 391.597 49.4652C391.421 49.0858 391.331 48.6793 391.331 48.2688C391.331 47.8583 391.422 47.4518 391.598 47.0726C391.774 46.6934 392.032 46.3488 392.357 46.0587C392.682 45.7685 393.069 45.5383 393.493 45.3814C393.918 45.2244 394.374 45.1437 394.833 45.1438C395.762 45.1441 396.652 45.4737 397.309 46.0601C397.965 46.6466 398.334 47.4418 398.333 48.2709C398.333 49.1 397.964 49.895 397.307 50.481C396.65 51.0671 395.76 51.3962 394.831 51.3959Z" fill="#E1E8FF"/>
<path d="M20.25 37.75H22.75M18 41.5H25C26.4001 41.5 27.1003 41.5 27.635 41.2275C28.1054 40.9879 28.4879 40.6054 28.7275 40.135C29 39.6003 29 38.9001 29 37.5V23C29 21.5999 29 20.8998 28.7275 20.365C28.4879 19.8946 28.1054 19.5122 27.635 19.2725C27.1003 19 26.4001 19 25 19H18C16.5999 19 15.8998 19 15.365 19.2725C14.8946 19.5122 14.5122 19.8946 14.2725 20.365C14 20.8998 14 21.5999 14 23V37.5C14 38.9001 14 39.6003 14.2725 40.135C14.5122 40.6054 14.8946 40.9879 15.365 41.2275C15.8998 41.5 16.5999 41.5 18 41.5Z" stroke="black" stroke-width="2.5" stroke-linecap="round" stroke-linejoin="round"/>
<path d="M43.7528 35L41.2131 26.2727H43.544L44.8608 31.9915H44.9332L46.4375 26.2727H48.3381L49.8423 32.0043H49.9148L51.2358 26.2727H53.5625L51.027 35H48.9943L47.4219 29.7074H47.3537L45.7812 35H43.7528ZM54.4339 35V26.2727H60.5192V27.9858H56.5433V29.7756H60.2081V31.4929H56.5433V33.2869H60.5192V35H54.4339ZM61.8402 35V26.2727H65.4794C66.1328 26.2727 66.6797 26.3651 67.12 26.5497C67.5632 26.7344 67.8956 26.9929 68.1172 27.3253C68.3416 27.6577 68.4538 28.0426 68.4538 28.4801C68.4538 28.8125 68.3842 29.1094 68.245 29.3707C68.1058 29.6293 67.9141 29.8437 67.6697 30.0142C67.4254 30.1847 67.1428 30.304 66.8217 30.3722V30.4574C67.174 30.4744 67.4993 30.5696 67.7976 30.7429C68.0987 30.9162 68.3402 31.1577 68.522 31.4673C68.7038 31.7741 68.7947 32.1378 68.7947 32.5582C68.7947 33.027 68.6754 33.446 68.4368 33.8153C68.1982 34.1818 67.853 34.4716 67.4013 34.6847C66.9496 34.8949 66.4013 35 65.7564 35H61.8402ZM63.9496 33.2997H65.2536C65.7109 33.2997 66.0476 33.2131 66.2635 33.0398C66.4822 32.8665 66.5916 32.625 66.5916 32.3153C66.5916 32.0909 66.5391 31.8977 66.4339 31.7358C66.3288 31.571 66.1797 31.4446 65.9865 31.3565C65.7933 31.2656 65.5618 31.2202 65.2919 31.2202H63.9496V33.2997ZM63.9496 29.8608H65.1172C65.3473 29.8608 65.5518 29.8224 65.7308 29.7457C65.9098 29.669 66.049 29.5582 66.1484 29.4134C66.2507 29.2685 66.3018 29.0937 66.3018 28.8892C66.3018 28.5966 66.1982 28.3665 65.9908 28.1989C65.7834 28.0312 65.5036 27.9474 65.1513 27.9474H63.9496V29.8608ZM74.2749 35H72.0078L74.9524 26.2727H77.7607L80.7053 35H78.4382L76.3885 28.4716H76.3203L74.2749 35ZM73.9723 31.5653H78.7109V33.1676H73.9723V31.5653ZM81.6449 35V26.2727H85.25C85.9034 26.2727 86.4673 26.4006 86.9418 26.6562C87.419 26.9091 87.7869 27.2628 88.0455 27.7173C88.304 28.169 88.4332 28.6946 88.4332 29.294C88.4332 29.8963 88.3011 30.4233 88.0369 30.875C87.7756 31.3239 87.402 31.6719 86.9162 31.919C86.4304 32.1662 85.8537 32.2898 85.1861 32.2898H82.9616V30.6278H84.794C85.1122 30.6278 85.3778 30.5724 85.5909 30.4616C85.8068 30.3509 85.9702 30.196 86.081 29.9972C86.1918 29.7955 86.2472 29.5611 86.2472 29.294C86.2472 29.0241 86.1918 28.7912 86.081 28.5952C85.9702 28.3963 85.8068 28.2429 85.5909 28.1349C85.375 28.027 85.1094 27.973 84.794 27.973H83.7543V35H81.6449ZM89.473 35V26.2727H93.0781C93.7315 26.2727 94.2955 26.4006 94.7699 26.6562C95.2472 26.9091 95.6151 27.2628 95.8736 27.7173C96.1321 28.169 96.2614 28.6946 96.2614 29.294C96.2614 29.8963 96.1293 30.4233 95.8651 30.875C95.6037 31.3239 95.2301 31.6719 94.7443 31.919C94.2585 32.1662 93.6818 32.2898 93.0142 32.2898H90.7898V30.6278H92.6222C92.9403 30.6278 93.206 30.5724 93.419 30.4616C93.6349 30.3509 93.7983 30.196 93.9091 29.9972C94.0199 29.7955 94.0753 29.5611 94.0753 29.294C94.0753 29.0241 94.0199 28.7912 93.9091 28.5952C93.7983 28.3963 93.6349 28.2429 93.419 28.1349C93.2031 28.027 92.9375 27.973 92.6222 27.973H91.5824V35H89.473ZM108.116 30.6364C108.116 31.5966 107.932 32.4105 107.562 33.0781C107.193 33.7457 106.693 34.2528 106.062 34.5994C105.435 34.946 104.73 35.1193 103.949 35.1193C103.165 35.1193 102.459 34.9446 101.831 34.5952C101.203 34.2457 100.705 33.7386 100.335 33.0739C99.9688 32.4062 99.7855 31.5937 99.7855 30.6364C99.7855 29.6761 99.9688 28.8622 100.335 28.1946C100.705 27.527 101.203 27.0199 101.831 26.6733C102.459 26.3267 103.165 26.1534 103.949 26.1534C104.73 26.1534 105.435 26.3267 106.062 26.6733C106.693 27.0199 107.193 27.527 107.562 28.1946C107.932 28.8622 108.116 29.6761 108.116 30.6364ZM105.96 30.6364C105.96 30.0682 105.879 29.5881 105.717 29.196C105.558 28.804 105.328 28.5071 105.027 28.3054C104.729 28.1037 104.369 28.0028 103.949 28.0028C103.531 28.0028 103.172 28.1037 102.871 28.3054C102.57 28.5071 102.338 28.804 102.176 29.196C102.017 29.5881 101.938 30.0682 101.938 30.6364C101.938 31.2045 102.017 31.6847 102.176 32.0767C102.338 32.4687 102.57 32.7656 102.871 32.9673C103.172 33.169 103.531 33.2699 103.949 33.2699C104.369 33.2699 104.729 33.169 105.027 32.9673C105.328 32.7656 105.558 32.4687 105.717 32.0767C105.879 31.6847 105.96 31.2045 105.96 30.6364ZM116.776 26.2727V35H114.986L111.513 29.9631H111.457V35H109.348V26.2727H111.163L114.598 31.3011H114.67V26.2727H116.776ZM118.102 35V26.2727H120.211V33.2869H123.842V35H118.102ZM123.152 26.2727H125.508L127.353 29.9247H127.43L129.275 26.2727H131.632L128.44 32.0852V35H126.343V32.0852L123.152 26.2727ZM143.331 30.6364C143.331 31.5966 143.147 32.4105 142.777 33.0781C142.408 33.7457 141.908 34.2528 141.277 34.5994C140.65 34.946 139.945 35.1193 139.164 35.1193C138.38 35.1193 137.674 34.9446 137.046 34.5952C136.418 34.2457 135.919 33.7386 135.55 33.0739C135.184 32.4062 135 31.5937 135 30.6364C135 29.6761 135.184 28.8622 135.55 28.1946C135.919 27.527 136.418 27.0199 137.046 26.6733C137.674 26.3267 138.38 26.1534 139.164 26.1534C139.945 26.1534 140.65 26.3267 141.277 26.6733C141.908 27.0199 142.408 27.527 142.777 28.1946C143.147 28.8622 143.331 29.6761 143.331 30.6364ZM141.175 30.6364C141.175 30.0682 141.094 29.5881 140.932 29.196C140.773 28.804 140.543 28.5071 140.242 28.3054C139.944 28.1037 139.584 28.0028 139.164 28.0028C138.746 28.0028 138.387 28.1037 138.086 28.3054C137.784 28.5071 137.553 28.804 137.391 29.196C137.232 29.5881 137.152 30.0682 137.152 30.6364C137.152 31.2045 137.232 31.6847 137.391 32.0767C137.553 32.4687 137.784 32.7656 138.086 32.9673C138.387 33.169 138.746 33.2699 139.164 33.2699C139.584 33.2699 139.944 33.169 140.242 32.9673C140.543 32.7656 140.773 32.4687 140.932 32.0767C141.094 31.6847 141.175 31.2045 141.175 30.6364ZM144.563 35V26.2727H150.52V27.9858H146.672V29.7756H150.141V31.4929H146.672V35H144.563ZM151.582 35V26.2727H157.54V27.9858H153.692V29.7756H157.161V31.4929H153.692V35H151.582ZM158.602 35V26.2727H164.687V27.9858H160.711V29.7756H164.376V31.4929H160.711V33.2869H164.687V35H158.602ZM166.008 35V26.2727H169.613C170.267 26.2727 170.831 26.3906 171.305 26.6264C171.782 26.8594 172.15 27.1946 172.409 27.6321C172.667 28.0668 172.797 28.5824 172.797 29.179C172.797 29.7841 172.664 30.2983 172.4 30.7216C172.136 31.142 171.761 31.4631 171.275 31.6847C170.789 31.9034 170.214 32.0128 169.549 32.0128H167.27V30.3509H169.157C169.475 30.3509 169.741 30.3097 169.954 30.2273C170.17 30.142 170.333 30.0142 170.444 29.8438C170.555 29.6705 170.61 29.4489 170.61 29.179C170.61 28.9091 170.555 28.6861 170.444 28.5099C170.333 28.331 170.17 28.1974 169.954 28.1094C169.738 28.0185 169.473 27.973 169.157 27.973H168.118V35H166.008ZM170.922 31.0114L173.095 35H170.794L168.663 31.0114H170.922Z" fill="#5257B9"/>
<path d="M22.5824 139.435H20.4517C20.4233 139.216 20.3651 139.018 20.277 138.842C20.1889 138.666 20.0724 138.516 19.9276 138.391C19.7827 138.266 19.6108 138.17 19.4119 138.105C19.2159 138.037 18.9986 138.003 18.7599 138.003C18.3366 138.003 17.9716 138.107 17.6648 138.314C17.3608 138.521 17.1264 138.821 16.9616 139.213C16.7997 139.605 16.7188 140.08 16.7188 140.636C16.7188 141.216 16.8011 141.702 16.9659 142.094C17.1335 142.483 17.3679 142.777 17.669 142.976C17.973 143.172 18.3324 143.27 18.7472 143.27C18.9801 143.27 19.1918 143.24 19.3821 143.18C19.5753 143.121 19.7443 143.034 19.8892 142.92C20.0369 142.804 20.1577 142.663 20.2514 142.499C20.348 142.331 20.4148 142.142 20.4517 141.932L22.5824 141.945C22.5455 142.331 22.4332 142.712 22.2457 143.087C22.0611 143.462 21.8068 143.804 21.483 144.114C21.1591 144.42 20.7642 144.665 20.2983 144.847C19.8352 145.028 19.304 145.119 18.7045 145.119C17.9148 145.119 17.2074 144.946 16.5824 144.599C15.9602 144.25 15.4688 143.741 15.108 143.074C14.7472 142.406 14.5668 141.594 14.5668 140.636C14.5668 139.676 14.75 138.862 15.1165 138.195C15.483 137.527 15.9787 137.02 16.6037 136.673C17.2287 136.327 17.929 136.153 18.7045 136.153C19.233 136.153 19.7216 136.227 20.1705 136.375C20.6193 136.52 21.0142 136.733 21.3551 137.014C21.696 137.293 21.973 137.635 22.1861 138.041C22.3991 138.447 22.5312 138.912 22.5824 139.435ZM32.0266 140.636C32.0266 141.597 31.842 142.411 31.4727 143.078C31.1033 143.746 30.6033 144.253 29.9727 144.599C29.3448 144.946 28.6403 145.119 27.859 145.119C27.0749 145.119 26.369 144.945 25.7411 144.595C25.1133 144.246 24.6147 143.739 24.2454 143.074C23.8789 142.406 23.6957 141.594 23.6957 140.636C23.6957 139.676 23.8789 138.862 24.2454 138.195C24.6147 137.527 25.1133 137.02 25.7411 136.673C26.369 136.327 27.0749 136.153 27.859 136.153C28.6403 136.153 29.3448 136.327 29.9727 136.673C30.6033 137.02 31.1033 137.527 31.4727 138.195C31.842 138.862 32.0266 139.676 32.0266 140.636ZM29.8704 140.636C29.8704 140.068 29.7894 139.588 29.6275 139.196C29.4684 138.804 29.2383 138.507 28.9371 138.305C28.6388 138.104 28.2795 138.003 27.859 138.003C27.4414 138.003 27.082 138.104 26.7809 138.305C26.4798 138.507 26.2482 138.804 26.0863 139.196C25.9272 139.588 25.8477 140.068 25.8477 140.636C25.8477 141.205 25.9272 141.685 26.0863 142.077C26.2482 142.469 26.4798 142.766 26.7809 142.967C27.082 143.169 27.4414 143.27 27.859 143.27C28.2795 143.27 28.6388 143.169 28.9371 142.967C29.2383 142.766 29.4684 142.469 29.6275 142.077C29.7894 141.685 29.8704 141.205 29.8704 140.636ZM36.484 145H33.2582V136.273H36.4798C37.369 136.273 38.1346 136.447 38.7766 136.797C39.4215 137.143 39.9187 137.643 40.2681 138.297C40.6175 138.947 40.7923 139.726 40.7923 140.632C40.7923 141.541 40.6175 142.322 40.2681 142.976C39.9215 143.629 39.4258 144.131 38.7809 144.48C38.136 144.827 37.3704 145 36.484 145ZM35.3675 143.202H36.4031C36.8917 143.202 37.305 143.119 37.6431 142.955C37.984 142.787 38.2411 142.516 38.4144 142.141C38.5906 141.763 38.6786 141.26 38.6786 140.632C38.6786 140.004 38.5906 139.504 38.4144 139.132C38.2383 138.757 37.9783 138.487 37.6346 138.322C37.2937 138.155 36.8732 138.071 36.3732 138.071H35.3675V143.202ZM42.0238 145V136.273H48.109V137.986H44.1332V139.776H47.7979V141.493H44.1332V143.287H48.109V145H42.0238ZM53.18 144.02C52.8732 144.02 52.6104 143.912 52.3917 143.696C52.1758 143.48 52.0692 143.219 52.0721 142.912C52.0692 142.611 52.1758 142.354 52.3917 142.141C52.6104 141.925 52.8732 141.817 53.18 141.817C53.4698 141.817 53.7255 141.925 53.9471 142.141C54.1715 142.354 54.2852 142.611 54.288 142.912C54.2852 143.116 54.2312 143.303 54.1261 143.47C54.0238 143.638 53.8888 143.771 53.7212 143.871C53.5565 143.97 53.3761 144.02 53.18 144.02ZM53.18 139.784C52.8732 139.784 52.6104 139.676 52.3917 139.46C52.1758 139.244 52.0692 138.983 52.0721 138.676C52.0692 138.375 52.1758 138.118 52.3917 137.905C52.6104 137.689 52.8732 137.581 53.18 137.581C53.4698 137.581 53.7255 137.689 53.9471 137.905C54.1715 138.118 54.2852 138.375 54.288 138.676C54.2852 138.881 54.2312 139.067 54.1261 139.234C54.0238 139.402 53.8888 139.536 53.7212 139.635C53.5565 139.734 53.3761 139.784 53.18 139.784ZM58.2425 145V136.273H61.8477C62.5011 136.273 63.065 136.401 63.5394 136.656C64.0167 136.909 64.3846 137.263 64.6431 137.717C64.9016 138.169 65.0309 138.695 65.0309 139.294C65.0309 139.896 64.8988 140.423 64.6346 140.875C64.3732 141.324 63.9996 141.672 63.5138 141.919C63.0281 142.166 62.4513 142.29 61.7837 142.29H59.5593V140.628H61.3917C61.7099 140.628 61.9755 140.572 62.1886 140.462C62.4045 140.351 62.5678 140.196 62.6786 139.997C62.7894 139.795 62.8448 139.561 62.8448 139.294C62.8448 139.024 62.7894 138.791 62.6786 138.595C62.5678 138.396 62.4045 138.243 62.1886 138.135C61.9727 138.027 61.707 137.973 61.3917 137.973H60.3519V145H58.2425ZM66.0707 145V136.273H68.18V139.776H71.619V136.273H73.7241V145H71.619V141.493H68.18V145H66.0707ZM76.935 145H74.668L77.6126 136.273H80.4208L83.3654 145H81.0984L79.0487 138.472H78.9805L76.935 145ZM76.6325 141.565H81.3711V143.168H76.6325V141.565ZM84.305 145V136.273H87.9102C88.5636 136.273 89.1275 136.391 89.6019 136.626C90.0792 136.859 90.4471 137.195 90.7056 137.632C90.9641 138.067 91.0934 138.582 91.0934 139.179C91.0934 139.784 90.9613 140.298 90.6971 140.722C90.4329 141.142 90.0579 141.463 89.5721 141.685C89.0863 141.903 88.511 142.013 87.8462 142.013H85.5664V140.351H87.4542C87.7724 140.351 88.038 140.31 88.2511 140.227C88.467 140.142 88.6303 140.014 88.7411 139.844C88.8519 139.67 88.9073 139.449 88.9073 139.179C88.9073 138.909 88.8519 138.686 88.7411 138.51C88.6303 138.331 88.467 138.197 88.2511 138.109C88.0352 138.018 87.7695 137.973 87.4542 137.973H86.4144V145H84.305ZM89.2184 141.011L91.3917 145H89.0906L86.9599 141.011H89.2184ZM92.2504 136.273H94.8626L97.0785 141.676H97.1808L99.3967 136.273H102.009V145H99.9549V139.639H99.8825L97.7859 144.945H96.4734L94.3768 139.609H94.3043V145H92.2504V136.273ZM105.212 145H102.945L105.89 136.273H108.698L111.643 145H109.376L107.326 138.472H107.258L105.212 145ZM104.91 141.565H109.648V143.168H104.91V141.565ZM112.565 145V143.483L115.749 140.696C115.987 140.48 116.19 140.283 116.358 140.104C116.526 139.922 116.653 139.74 116.741 139.558C116.83 139.374 116.874 139.173 116.874 138.957C116.874 138.716 116.821 138.51 116.716 138.339C116.611 138.166 116.466 138.033 116.281 137.939C116.097 137.845 115.885 137.798 115.646 137.798C115.405 137.798 115.193 137.848 115.011 137.947C114.83 138.044 114.688 138.185 114.585 138.369C114.486 138.554 114.436 138.778 114.436 139.043H112.438C112.438 138.449 112.571 137.936 112.838 137.504C113.105 137.072 113.48 136.74 113.963 136.507C114.449 136.271 115.013 136.153 115.655 136.153C116.317 136.153 116.892 136.264 117.381 136.486C117.869 136.707 118.247 137.017 118.514 137.415C118.784 137.81 118.919 138.268 118.919 138.791C118.919 139.124 118.852 139.453 118.719 139.78C118.585 140.107 118.345 140.467 117.999 140.862C117.655 141.257 117.166 141.73 116.533 142.281L115.489 143.244V143.3H119.026V145H112.565ZM119.924 143.551V141.906L123.499 136.273H124.961V138.506H124.113L122.02 141.821V141.889H127.198V143.551H119.924ZM124.138 145V143.048L124.181 142.328V136.273H126.154V145H124.138Z" fill="#1C274C" fill-opacity="0.42"/>
<path d="M22.1818 64.6172C22.1072 64.358 22.0025 64.1289 21.8675 63.93C21.7326 63.7276 21.5675 63.5572 21.3722 63.4187C21.1804 63.2766 20.9602 63.1683 20.7116 63.0938C20.4666 63.0192 20.195 62.9819 19.8967 62.9819C19.3391 62.9819 18.8491 63.1204 18.4265 63.3974C18.0075 63.6744 17.6808 64.0774 17.4464 64.6065C17.212 65.1321 17.0948 65.7749 17.0948 66.5348C17.0948 67.2947 17.2102 67.9411 17.4411 68.4737C17.6719 69.0064 17.9986 69.413 18.4212 69.6935C18.8438 69.9705 19.3427 70.109 19.918 70.109C20.44 70.109 20.8857 70.0167 21.255 69.832C21.6278 69.6438 21.9119 69.3793 22.1072 69.0384C22.3061 68.6974 22.4055 68.2944 22.4055 67.8292L22.8743 67.8984H20.0618V66.1619H24.6268V67.5362C24.6268 68.495 24.4244 69.3189 24.0195 70.0078C23.6147 70.6932 23.0572 71.2223 22.3469 71.5952C21.6367 71.9645 20.8235 72.1491 19.9073 72.1491C18.8846 72.1491 17.9862 71.9237 17.212 71.4727C16.4379 71.0181 15.8342 70.3736 15.4009 69.5391C14.9712 68.701 14.7564 67.7067 14.7564 66.5561C14.7564 65.6719 14.8842 64.8835 15.1399 64.1911C15.3991 63.495 15.7614 62.9055 16.2266 62.4226C16.6918 61.9396 17.2333 61.5721 17.8512 61.32C18.4691 61.0678 19.1385 60.9418 19.8594 60.9418C20.4773 60.9418 21.0526 61.0323 21.5852 61.2134C22.1179 61.391 22.5902 61.6431 23.0021 61.9698C23.4176 62.2965 23.7567 62.6854 24.0195 63.1364C24.2823 63.5838 24.451 64.0774 24.5256 64.6172H22.1818ZM30.0454 72.1598C29.2037 72.1598 28.4793 71.9893 27.8721 71.6484C27.2684 71.304 26.8032 70.8175 26.4765 70.1889C26.1498 69.5568 25.9864 68.8093 25.9864 67.9464C25.9864 67.1048 26.1498 66.3661 26.4765 65.7305C26.8032 65.0948 27.2631 64.5994 27.8561 64.2443C28.4527 63.8892 29.1523 63.7116 29.9548 63.7116C30.4946 63.7116 30.9971 63.7987 31.4623 63.9727C31.931 64.1431 32.3394 64.4006 32.6874 64.745C33.039 65.0895 33.3124 65.5227 33.5077 66.0447C33.703 66.5632 33.8007 67.1705 33.8007 67.8665V68.4897H26.892V67.0835H31.6647C31.6647 66.7567 31.5937 66.4673 31.4516 66.2152C31.3096 65.9631 31.1125 65.766 30.8604 65.6239C30.6118 65.4783 30.3224 65.4055 29.9921 65.4055C29.6476 65.4055 29.3422 65.4854 29.0759 65.6452C28.8131 65.8015 28.6072 66.0128 28.458 66.2791C28.3089 66.5419 28.2325 66.8349 28.229 67.158V68.495C28.229 68.8999 28.3035 69.2496 28.4527 69.5444C28.6054 69.8391 28.8202 70.0664 29.0972 70.2262C29.3742 70.386 29.7027 70.4659 30.0827 70.4659C30.3348 70.4659 30.5656 70.4304 30.7751 70.3594C30.9846 70.2884 31.164 70.1818 31.3131 70.0398C31.4623 69.8977 31.5759 69.7237 31.654 69.5178L33.7528 69.6562C33.6462 70.1605 33.4278 70.6009 33.0976 70.9773C32.7709 71.3501 32.3483 71.6413 31.8298 71.8509C31.3149 72.0568 30.7201 72.1598 30.0454 72.1598ZM39.6334 63.8182V65.5227H34.7062V63.8182H39.6334ZM35.8248 61.858H38.094V69.4858C38.094 69.6953 38.126 69.8587 38.1899 69.9759C38.2538 70.0895 38.3426 70.1694 38.4562 70.2156C38.5734 70.2617 38.7084 70.2848 38.8611 70.2848C38.9676 70.2848 39.0741 70.2759 39.1807 70.2582C39.2872 70.2369 39.3689 70.2209 39.4257 70.2102L39.7826 71.8988C39.6689 71.9343 39.5091 71.9751 39.3032 72.0213C39.0972 72.071 38.8469 72.1012 38.5521 72.1119C38.0052 72.1332 37.5258 72.0604 37.1139 71.8935C36.7055 71.7266 36.3877 71.4673 36.1604 71.1158C35.9331 70.7642 35.8213 70.3203 35.8248 69.7841V61.858ZM48.5463 72.1491C47.7935 72.1491 47.1223 72.0107 46.5328 71.7337C45.9469 71.4567 45.4817 71.0749 45.1373 70.5884C44.7928 70.1019 44.6135 69.5444 44.5993 68.9158H46.8365C46.8613 69.3384 47.0389 69.6811 47.3691 69.9439C47.6994 70.2067 48.0918 70.3381 48.5463 70.3381C48.9086 70.3381 49.2282 70.2582 49.5051 70.0984C49.7857 69.935 50.0041 69.7095 50.1603 69.4219C50.3201 69.1307 50.4 68.7969 50.4 68.4205C50.4 68.0369 50.3184 67.6996 50.155 67.4084C49.9952 67.1172 49.7733 66.8899 49.4892 66.7266C49.2051 66.5632 48.8801 66.4798 48.5144 66.4762C48.1948 66.4762 47.8841 66.5419 47.5822 66.6733C47.2839 66.8047 47.0513 66.984 46.8844 67.2113L44.8336 66.8438L45.3503 61.0909H52.0194V62.9766H47.252L46.9696 65.7092H47.0336C47.2253 65.4393 47.5147 65.2156 47.9018 65.038C48.2889 64.8604 48.7221 64.7717 49.2015 64.7717C49.8585 64.7717 50.4444 64.9261 50.9593 65.2351C51.4743 65.544 51.8809 65.9684 52.1792 66.5082C52.4775 67.0444 52.6248 67.6623 52.6213 68.3619C52.6248 69.0969 52.4544 69.7504 52.1099 70.3221C51.769 70.8903 51.2914 71.3377 50.677 71.6644C50.0662 71.9876 49.356 72.1491 48.5463 72.1491ZM60.2012 69.9545V69.3793C60.2012 68.9425 60.2935 68.5412 60.4782 68.1754C60.6664 67.8061 60.938 67.5114 61.2931 67.2912C61.6518 67.0675 62.0886 66.9556 62.6035 66.9556C63.1255 66.9556 63.5641 67.0657 63.9192 67.2859C64.2779 67.506 64.5478 67.8008 64.7289 68.1701C64.9135 68.5359 65.0059 68.9389 65.0059 69.3793V69.9545C65.0059 70.3913 64.9135 70.7944 64.7289 71.1637C64.5442 71.5295 64.2725 71.8224 63.9139 72.0426C63.5552 72.2663 63.1184 72.3782 62.6035 72.3782C62.0815 72.3782 61.6429 72.2663 61.2878 72.0426C60.9327 71.8224 60.6628 71.5295 60.4782 71.1637C60.2935 70.7944 60.2012 70.3913 60.2012 69.9545ZM61.7512 69.3793V69.9545C61.7512 70.2067 61.8116 70.4446 61.9324 70.6683C62.0566 70.892 62.2804 71.0039 62.6035 71.0039C62.9267 71.0039 63.1468 70.8938 63.264 70.6737C63.3848 70.4535 63.4451 70.2138 63.4451 69.9545V69.3793C63.4451 69.12 63.3883 68.8786 63.2747 68.6548C63.161 68.4311 62.9373 68.3192 62.6035 68.3192C62.2839 68.3192 62.062 68.4311 61.9377 68.6548C61.8134 68.8786 61.7512 69.12 61.7512 69.3793ZM54.6028 63.7116V63.1364C54.6028 62.696 54.6969 62.293 54.8851 61.9272C55.0733 61.5579 55.345 61.2631 55.7001 61.043C56.0588 60.8228 56.492 60.7127 56.9998 60.7127C57.5254 60.7127 57.9657 60.8228 58.3208 61.043C58.676 61.2631 58.9458 61.5579 59.1305 61.9272C59.3152 62.293 59.4075 62.696 59.4075 63.1364V63.7116C59.4075 64.152 59.3134 64.555 59.1252 64.9208C58.9405 65.2866 58.6689 65.5795 58.3102 65.7997C57.9551 66.0163 57.5183 66.1246 56.9998 66.1246C56.4814 66.1246 56.0428 66.0146 55.6841 65.7944C55.329 65.5707 55.0591 65.2777 54.8745 64.9155C54.6934 64.5497 54.6028 64.1484 54.6028 63.7116ZM56.1635 63.1364V63.7116C56.1635 63.9709 56.2239 64.2106 56.3446 64.4308C56.4689 64.6509 56.6873 64.761 56.9998 64.761C57.3265 64.761 57.5485 64.6509 57.6657 64.4308C57.7864 64.2106 57.8468 63.9709 57.8468 63.7116V63.1364C57.8468 62.8771 57.79 62.6357 57.6763 62.4119C57.5627 62.1882 57.3372 62.0763 56.9998 62.0763C56.6838 62.0763 56.4654 62.19 56.3446 62.4173C56.2239 62.6445 56.1635 62.8842 56.1635 63.1364ZM55.3059 72L62.8059 61.0909H64.2015L56.7015 72H55.3059ZM80.681 66.5455C80.681 67.7351 80.4555 68.7472 80.0045 69.5817C79.5571 70.4162 78.9463 71.0536 78.1721 71.494C77.4015 71.9308 76.5351 72.1491 75.5727 72.1491C74.6032 72.1491 73.7332 71.929 72.9626 71.4886C72.192 71.0483 71.583 70.4109 71.1356 69.5763C70.6881 68.7418 70.4644 67.7315 70.4644 66.5455C70.4644 65.3558 70.6881 64.3438 71.1356 63.5092C71.583 62.6747 72.192 62.0391 72.9626 61.6023C73.7332 61.1619 74.6032 60.9418 75.5727 60.9418C76.5351 60.9418 77.4015 61.1619 78.1721 61.6023C78.9463 62.0391 79.5571 62.6747 80.0045 63.5092C80.4555 64.3438 80.681 65.3558 80.681 66.5455ZM78.3426 66.5455C78.3426 65.7749 78.2272 65.125 77.9964 64.5959C77.7691 64.0668 77.4477 63.6655 77.0322 63.392C76.6167 63.1186 76.1302 62.9819 75.5727 62.9819C75.0152 62.9819 74.5287 63.1186 74.1132 63.392C73.6977 63.6655 73.3746 64.0668 73.1437 64.5959C72.9165 65.125 72.8028 65.7749 72.8028 66.5455C72.8028 67.3161 72.9165 67.9659 73.1437 68.495C73.3746 69.0241 73.6977 69.4254 74.1132 69.6989C74.5287 69.9723 75.0152 70.109 75.5727 70.109C76.1302 70.109 76.6167 69.9723 77.0322 69.6989C77.4477 69.4254 77.7691 69.0241 77.9964 68.495C78.2272 67.9659 78.3426 67.3161 78.3426 66.5455ZM82.3896 72V61.0909H89.6126V62.9925H84.696V65.592H89.1332V67.4936H84.696V72H82.3896ZM91.164 72V61.0909H98.387V62.9925H93.4704V65.592H97.9076V67.4936H93.4704V72H91.164ZM102.511 67.2273L102.644 65.1658L100.919 66.3217L100.205 65.0646L102.064 64.1591L100.205 63.2536L100.919 61.9964L102.644 63.1523L102.511 61.0909H103.944L103.806 63.1523L105.531 61.9964L106.245 63.2536L104.392 64.1591L106.245 65.0646L105.531 66.3217L103.806 65.1658L103.944 67.2273H102.511ZM115.531 72.1598C114.704 72.1598 113.988 71.984 113.384 71.6325C112.784 71.2773 112.321 70.7837 111.994 70.1516C111.667 69.516 111.504 68.7791 111.504 67.9411C111.504 67.0959 111.667 66.3572 111.994 65.7251C112.321 65.0895 112.784 64.5959 113.384 64.2443C113.988 63.8892 114.704 63.7116 115.531 63.7116C116.358 63.7116 117.072 63.8892 117.672 64.2443C118.276 64.5959 118.741 65.0895 119.068 65.7251C119.395 66.3572 119.558 67.0959 119.558 67.9411C119.558 68.7791 119.395 69.516 119.068 70.1516C118.741 70.7837 118.276 71.2773 117.672 71.6325C117.072 71.984 116.358 72.1598 115.531 72.1598ZM115.542 70.402C115.918 70.402 116.232 70.2955 116.484 70.0824C116.737 69.8658 116.927 69.571 117.054 69.1982C117.186 68.8253 117.252 68.4009 117.252 67.9251C117.252 67.4492 117.186 67.0249 117.054 66.652C116.927 66.2791 116.737 65.9844 116.484 65.7678C116.232 65.5511 115.918 65.4428 115.542 65.4428C115.162 65.4428 114.842 65.5511 114.583 65.7678C114.327 65.9844 114.134 66.2791 114.002 66.652C113.874 67.0249 113.81 67.4492 113.81 67.9251C113.81 68.4009 113.874 68.8253 114.002 69.1982C114.134 69.571 114.327 69.8658 114.583 70.0824C114.842 70.2955 115.162 70.402 115.542 70.402ZM123.303 67.2699V72H121.033V63.8182H123.196V65.2617H123.292C123.473 64.7859 123.777 64.4094 124.203 64.1325C124.629 63.8519 125.146 63.7116 125.753 63.7116C126.321 63.7116 126.816 63.8359 127.239 64.0845C127.662 64.3331 127.99 64.6882 128.225 65.1499C128.459 65.608 128.576 66.1548 128.576 66.7905V72H126.307V67.1953C126.31 66.6946 126.183 66.304 125.923 66.0234C125.664 65.7393 125.307 65.5973 124.853 65.5973C124.547 65.5973 124.277 65.663 124.043 65.7944C123.812 65.9258 123.631 66.1175 123.5 66.3697C123.372 66.6183 123.306 66.9183 123.303 67.2699ZM135.237 75.0682C134.949 75.0682 134.68 75.0451 134.427 74.9989C134.179 74.9563 133.973 74.9013 133.81 74.8338L134.321 73.1399C134.587 73.2216 134.827 73.266 135.04 73.2731C135.257 73.2802 135.443 73.2305 135.599 73.1239C135.759 73.0174 135.889 72.8363 135.988 72.5806L136.121 72.2344L133.186 63.8182H135.573L137.267 69.8267H137.352L139.062 63.8182H141.464L138.284 72.8842C138.131 73.3246 137.924 73.7081 137.661 74.0348C137.402 74.3651 137.073 74.619 136.675 74.7965C136.278 74.9776 135.798 75.0682 135.237 75.0682ZM146.058 72.1598C145.231 72.1598 144.515 71.984 143.912 71.6325C143.312 71.2773 142.848 70.7837 142.521 70.1516C142.195 69.516 142.031 68.7791 142.031 67.9411C142.031 67.0959 142.195 66.3572 142.521 65.7251C142.848 65.0895 143.312 64.5959 143.912 64.2443C144.515 63.8892 145.231 63.7116 146.058 63.7116C146.886 63.7116 147.6 63.8892 148.2 64.2443C148.803 64.5959 149.269 65.0895 149.595 65.7251C149.922 66.3572 150.085 67.0959 150.085 67.9411C150.085 68.7791 149.922 69.516 149.595 70.1516C149.269 70.7837 148.803 71.2773 148.2 71.6325C147.6 71.984 146.886 72.1598 146.058 72.1598ZM146.069 70.402C146.445 70.402 146.76 70.2955 147.012 70.0824C147.264 69.8658 147.454 69.571 147.582 69.1982C147.713 68.8253 147.779 68.4009 147.779 67.9251C147.779 67.4492 147.713 67.0249 147.582 66.652C147.454 66.2791 147.264 65.9844 147.012 65.7678C146.76 65.5511 146.445 65.4428 146.069 65.4428C145.689 65.4428 145.369 65.5511 145.11 65.7678C144.854 65.9844 144.661 66.2791 144.53 66.652C144.402 67.0249 144.338 67.4492 144.338 67.9251C144.338 68.4009 144.402 68.8253 144.53 69.1982C144.661 69.571 144.854 69.8658 145.11 70.0824C145.369 70.2955 145.689 70.402 146.069 70.402ZM156.808 68.5163V63.8182H159.077V72H156.898V70.5138H156.813C156.628 70.9933 156.321 71.3786 155.891 71.6697C155.465 71.9609 154.945 72.1065 154.331 72.1065C153.784 72.1065 153.303 71.9822 152.887 71.7337C152.472 71.4851 152.147 71.1317 151.912 70.6737C151.682 70.2156 151.564 69.6669 151.561 69.0277V63.8182H153.83V68.6229C153.834 69.1058 153.963 69.4876 154.219 69.7681C154.475 70.0487 154.817 70.1889 155.247 70.1889C155.52 70.1889 155.776 70.1268 156.014 70.0025C156.252 69.8746 156.444 69.6864 156.589 69.4379C156.738 69.1893 156.811 68.8821 156.808 68.5163ZM160.892 72V63.8182H163.092V65.2457H163.177C163.326 64.7379 163.577 64.3544 163.928 64.0952C164.28 63.8324 164.684 63.701 165.143 63.701C165.256 63.701 165.379 63.7081 165.51 63.7223C165.642 63.7365 165.757 63.756 165.856 63.7809V65.7944C165.75 65.7624 165.602 65.734 165.414 65.7092C165.226 65.6843 165.054 65.6719 164.898 65.6719C164.564 65.6719 164.265 65.7447 164.003 65.8903C163.743 66.0323 163.537 66.2312 163.385 66.4869C163.236 66.7425 163.161 67.0373 163.161 67.3711V72H160.892ZM174.853 63.8182V65.5227H169.926V63.8182H174.853ZM171.045 61.858H173.314V69.4858C173.314 69.6953 173.346 69.8587 173.41 69.9759C173.474 70.0895 173.562 70.1694 173.676 70.2156C173.793 70.2617 173.928 70.2848 174.081 70.2848C174.187 70.2848 174.294 70.2759 174.4 70.2582C174.507 70.2369 174.589 70.2209 174.645 70.2102L175.002 71.8988C174.889 71.9343 174.729 71.9751 174.523 72.0213C174.317 72.071 174.067 72.1012 173.772 72.1119C173.225 72.1332 172.746 72.0604 172.334 71.8935C171.925 71.7266 171.607 71.4673 171.38 71.1158C171.153 70.7642 171.041 70.3203 171.045 69.7841V61.858ZM179.94 72.1598C179.113 72.1598 178.397 71.984 177.794 71.6325C177.193 71.2773 176.73 70.7837 176.403 70.1516C176.077 69.516 175.913 68.7791 175.913 67.9411C175.913 67.0959 176.077 66.3572 176.403 65.7251C176.73 65.0895 177.193 64.5959 177.794 64.2443C178.397 63.8892 179.113 63.7116 179.94 63.7116C180.768 63.7116 181.481 63.8892 182.081 64.2443C182.685 64.5959 183.15 65.0895 183.477 65.7251C183.804 66.3572 183.967 67.0959 183.967 67.9411C183.967 68.7791 183.804 69.516 183.477 70.1516C183.15 70.7837 182.685 71.2773 182.081 71.6325C181.481 71.984 180.768 72.1598 179.94 72.1598ZM179.951 70.402C180.327 70.402 180.642 70.2955 180.894 70.0824C181.146 69.8658 181.336 69.571 181.464 69.1982C181.595 68.8253 181.661 68.4009 181.661 67.9251C181.661 67.4492 181.595 67.0249 181.464 66.652C181.336 66.2791 181.146 65.9844 180.894 65.7678C180.642 65.5511 180.327 65.4428 179.951 65.4428C179.571 65.4428 179.251 65.5511 178.992 65.7678C178.736 65.9844 178.543 66.2791 178.411 66.652C178.284 67.0249 178.22 67.4492 178.22 67.9251C178.22 68.4009 178.284 68.8253 178.411 69.1982C178.543 69.571 178.736 69.8658 178.992 70.0824C179.251 70.2955 179.571 70.402 179.951 70.402ZM189.795 63.8182V65.5227H184.867V63.8182H189.795ZM185.986 61.858H188.255V69.4858C188.255 69.6953 188.287 69.8587 188.351 69.9759C188.415 70.0895 188.504 70.1694 188.617 70.2156C188.735 70.2617 188.869 70.2848 189.022 70.2848C189.129 70.2848 189.235 70.2759 189.342 70.2582C189.448 70.2369 189.53 70.2209 189.587 70.2102L189.944 71.8988C189.83 71.9343 189.67 71.9751 189.464 72.0213C189.258 72.071 189.008 72.1012 188.713 72.1119C188.166 72.1332 187.687 72.0604 187.275 71.8935C186.867 71.7266 186.549 71.4673 186.322 71.1158C186.094 70.7642 185.982 70.3203 185.986 69.7841V61.858ZM193.606 72.1545C193.084 72.1545 192.619 72.0639 192.21 71.8828C191.802 71.6982 191.479 71.4265 191.241 71.0678C191.006 70.7056 190.889 70.2546 190.889 69.7148C190.889 69.2603 190.973 68.8786 191.14 68.5696C191.306 68.2607 191.534 68.0121 191.821 67.8239C192.109 67.6357 192.436 67.4936 192.801 67.3977C193.171 67.3018 193.558 67.2344 193.963 67.1953C194.439 67.1456 194.822 67.0994 195.113 67.0568C195.404 67.0107 195.616 66.9432 195.747 66.8544C195.879 66.7656 195.944 66.6342 195.944 66.4602V66.4283C195.944 66.0909 195.838 65.8299 195.625 65.6452C195.415 65.4606 195.117 65.3683 194.73 65.3683C194.321 65.3683 193.996 65.4588 193.755 65.6399C193.513 65.8175 193.354 66.0412 193.276 66.3111L191.177 66.1406C191.283 65.6435 191.493 65.2138 191.805 64.8516C192.118 64.4858 192.521 64.2053 193.015 64.0099C193.512 63.8111 194.087 63.7116 194.74 63.7116C195.195 63.7116 195.63 63.7649 196.045 63.8714C196.464 63.978 196.836 64.1431 197.159 64.3668C197.485 64.5906 197.743 64.8782 197.931 65.2298C198.119 65.5778 198.213 65.995 198.213 66.4815V72H196.061V70.8654H195.998C195.866 71.1211 195.69 71.3466 195.47 71.5419C195.25 71.7337 194.985 71.8846 194.676 71.9947C194.368 72.1012 194.011 72.1545 193.606 72.1545ZM194.256 70.5884C194.589 70.5884 194.884 70.5227 195.14 70.3913C195.396 70.2564 195.596 70.0753 195.742 69.848C195.887 69.6207 195.96 69.3633 195.96 69.0756V68.2074C195.889 68.2536 195.792 68.2962 195.667 68.3352C195.547 68.3707 195.41 68.4045 195.257 68.4364C195.104 68.4648 194.952 68.4915 194.799 68.5163C194.646 68.5376 194.508 68.5572 194.384 68.5749C194.117 68.614 193.885 68.6761 193.686 68.7614C193.487 68.8466 193.332 68.962 193.222 69.1076C193.112 69.2496 193.057 69.4272 193.057 69.6403C193.057 69.9492 193.169 70.1854 193.393 70.3487C193.62 70.5085 193.908 70.5884 194.256 70.5884ZM202.243 61.0909V72H199.974V61.0909H202.243ZM211.229 72.1598C210.402 72.1598 209.686 71.984 209.083 71.6325C208.482 71.2773 208.019 70.7837 207.692 70.1516C207.366 69.516 207.202 68.7791 207.202 67.9411C207.202 67.0959 207.366 66.3572 207.692 65.7251C208.019 65.0895 208.482 64.5959 209.083 64.2443C209.686 63.8892 210.402 63.7116 211.229 63.7116C212.057 63.7116 212.77 63.8892 213.371 64.2443C213.974 64.5959 214.439 65.0895 214.766 65.7251C215.093 66.3572 215.256 67.0959 215.256 67.9411C215.256 68.7791 215.093 69.516 214.766 70.1516C214.439 70.7837 213.974 71.2773 213.371 71.6325C212.77 71.984 212.057 72.1598 211.229 72.1598ZM211.24 70.402C211.616 70.402 211.931 70.2955 212.183 70.0824C212.435 69.8658 212.625 69.571 212.753 69.1982C212.884 68.8253 212.95 68.4009 212.95 67.9251C212.95 67.4492 212.884 67.0249 212.753 66.652C212.625 66.2791 212.435 65.9844 212.183 65.7678C211.931 65.5511 211.616 65.4428 211.24 65.4428C210.86 65.4428 210.54 65.5511 210.281 65.7678C210.025 65.9844 209.832 66.2791 209.7 66.652C209.573 67.0249 209.509 67.4492 209.509 67.9251C209.509 68.4009 209.573 68.8253 209.7 69.1982C209.832 69.571 210.025 69.8658 210.281 70.0824C210.54 70.2955 210.86 70.402 211.24 70.402ZM216.732 72V63.8182H218.932V65.2457H219.017C219.166 64.7379 219.416 64.3544 219.768 64.0952C220.119 63.8324 220.524 63.701 220.982 63.701C221.096 63.701 221.219 63.7081 221.35 63.7223C221.481 63.7365 221.597 63.756 221.696 63.7809V65.7944C221.59 65.7624 221.442 65.734 221.254 65.7092C221.066 65.6843 220.894 65.6719 220.737 65.6719C220.404 65.6719 220.105 65.7447 219.843 65.8903C219.583 66.0323 219.377 66.2312 219.225 66.4869C219.075 66.7425 219.001 67.0373 219.001 67.3711V72H216.732ZM225.503 72.1332C224.882 72.1332 224.319 71.9734 223.815 71.6538C223.314 71.3306 222.916 70.8565 222.622 70.2315C222.331 69.603 222.185 68.8324 222.185 67.9197C222.185 66.9822 222.336 66.2028 222.638 65.5813C222.94 64.9563 223.341 64.4893 223.842 64.1804C224.346 63.8679 224.898 63.7116 225.498 63.7116C225.956 63.7116 226.338 63.7898 226.643 63.946C226.952 64.0987 227.201 64.2905 227.389 64.5213C227.581 64.7486 227.726 64.9723 227.826 65.1925H227.895V61.0909H230.159V72H227.922V70.6896H227.826C227.719 70.9169 227.568 71.1424 227.373 71.3661C227.181 71.5863 226.931 71.7692 226.622 71.9148C226.317 72.0604 225.944 72.1332 225.503 72.1332ZM226.223 70.3274C226.588 70.3274 226.897 70.228 227.149 70.0291C227.405 69.8267 227.6 69.5444 227.735 69.1822C227.874 68.82 227.943 68.3956 227.943 67.9091C227.943 67.4226 227.876 67 227.741 66.6413C227.606 66.2827 227.41 66.0057 227.155 65.8104C226.899 65.6151 226.588 65.5174 226.223 65.5174C225.85 65.5174 225.535 65.6186 225.28 65.821C225.024 66.0234 224.831 66.304 224.699 66.6626C224.568 67.0213 224.502 67.4368 224.502 67.9091C224.502 68.3849 224.568 68.8058 224.699 69.1715C224.834 69.5337 225.028 69.8178 225.28 70.0238C225.535 70.2262 225.85 70.3274 226.223 70.3274ZM235.753 72.1598C234.912 72.1598 234.187 71.9893 233.58 71.6484C232.976 71.304 232.511 70.8175 232.184 70.1889C231.858 69.5568 231.694 68.8093 231.694 67.9464C231.694 67.1048 231.858 66.3661 232.184 65.7305C232.511 65.0948 232.971 64.5994 233.564 64.2443C234.161 63.8892 234.86 63.7116 235.663 63.7116C236.203 63.7116 236.705 63.7987 237.17 63.9727C237.639 64.1431 238.047 64.4006 238.395 64.745C238.747 65.0895 239.02 65.5227 239.216 66.0447C239.411 66.5632 239.509 67.1705 239.509 67.8665V68.4897H232.6V67.0835H237.373C237.373 66.7567 237.302 66.4673 237.16 66.2152C237.018 65.9631 236.82 65.766 236.568 65.6239C236.32 65.4783 236.03 65.4055 235.7 65.4055C235.356 65.4055 235.05 65.4854 234.784 65.6452C234.521 65.8015 234.315 66.0128 234.166 66.2791C234.017 66.5419 233.941 66.8349 233.937 67.158V68.495C233.937 68.8999 234.012 69.2496 234.161 69.5444C234.313 69.8391 234.528 70.0664 234.805 70.2262C235.082 70.386 235.411 70.4659 235.791 70.4659C236.043 70.4659 236.274 70.4304 236.483 70.3594C236.693 70.2884 236.872 70.1818 237.021 70.0398C237.17 69.8977 237.284 69.7237 237.362 69.5178L239.461 69.6562C239.354 70.1605 239.136 70.6009 238.806 70.9773C238.479 71.3501 238.056 71.6413 237.538 71.8509C237.023 72.0568 236.428 72.1598 235.753 72.1598ZM240.99 72V63.8182H243.189V65.2457H243.275C243.424 64.7379 243.674 64.3544 244.026 64.0952C244.377 63.8324 244.782 63.701 245.24 63.701C245.354 63.701 245.476 63.7081 245.608 63.7223C245.739 63.7365 245.855 63.756 245.954 63.7809V65.7944C245.847 65.7624 245.7 65.734 245.512 65.7092C245.324 65.6843 245.151 65.6719 244.995 65.6719C244.661 65.6719 244.363 65.7447 244.1 65.8903C243.841 66.0323 243.635 66.2312 243.482 66.4869C243.333 66.7425 243.259 67.0373 243.259 67.3711V72H240.99ZM250.599 72V63.8182H252.868V72H250.599ZM251.739 62.7635C251.401 62.7635 251.112 62.6516 250.871 62.4279C250.633 62.2006 250.514 61.929 250.514 61.6129C250.514 61.3004 250.633 61.0323 250.871 60.8086C251.112 60.5813 251.401 60.4677 251.739 60.4677C252.076 60.4677 252.364 60.5813 252.602 60.8086C252.843 61.0323 252.964 61.3004 252.964 61.6129C252.964 61.929 252.843 62.2006 252.602 62.4279C252.364 62.6516 252.076 62.7635 251.739 62.7635ZM256.955 67.2699V72H254.686V63.8182H256.848V65.2617H256.944C257.125 64.7859 257.429 64.4094 257.855 64.1325C258.281 63.8519 258.798 63.7116 259.405 63.7116C259.973 63.7116 260.469 63.8359 260.891 64.0845C261.314 64.3331 261.642 64.6882 261.877 65.1499C262.111 65.608 262.228 66.1548 262.228 66.7905V72H259.959V67.1953C259.963 66.6946 259.835 66.304 259.576 66.0234C259.316 65.7393 258.96 65.5973 258.505 65.5973C258.2 65.5973 257.93 65.663 257.695 65.7944C257.465 65.9258 257.283 66.1175 257.152 66.3697C257.024 66.6183 256.959 66.9183 256.955 67.2699ZM270.824 66.1513L268.747 66.2791C268.711 66.1016 268.635 65.9418 268.518 65.7997C268.401 65.6541 268.246 65.5387 268.055 65.4535C267.866 65.3647 267.641 65.3203 267.378 65.3203C267.026 65.3203 266.73 65.3949 266.488 65.544C266.247 65.6896 266.126 65.8849 266.126 66.13C266.126 66.3253 266.204 66.4904 266.361 66.6254C266.517 66.7603 266.785 66.8686 267.165 66.9503L268.646 67.2486C269.441 67.4119 270.034 67.6747 270.425 68.0369C270.816 68.3991 271.011 68.875 271.011 69.4645C271.011 70.0007 270.853 70.4712 270.537 70.8761C270.224 71.2809 269.795 71.5969 269.248 71.8242C268.704 72.0479 268.078 72.1598 267.367 72.1598C266.284 72.1598 265.421 71.9343 264.779 71.4833C264.139 71.0288 263.765 70.4109 263.655 69.6296L265.887 69.5124C265.954 69.8427 266.117 70.0948 266.377 70.2688C266.636 70.4393 266.968 70.5245 267.373 70.5245C267.77 70.5245 268.09 70.4482 268.331 70.2955C268.577 70.1392 268.701 69.9386 268.704 69.6935C268.701 69.4876 268.614 69.3189 268.443 69.1875C268.273 69.0526 268.01 68.9496 267.655 68.8786L266.238 68.5962C265.439 68.4364 264.844 68.1594 264.454 67.7653C264.067 67.3711 263.873 66.8686 263.873 66.2578C263.873 65.7322 264.015 65.2795 264.299 64.8995C264.587 64.5195 264.99 64.2266 265.508 64.0206C266.03 63.8146 266.641 63.7116 267.341 63.7116C268.374 63.7116 269.187 63.93 269.78 64.3668C270.377 64.8036 270.725 65.3984 270.824 66.1513ZM276.792 63.8182V65.5227H271.864V63.8182H276.792ZM272.983 61.858H275.252V69.4858C275.252 69.6953 275.284 69.8587 275.348 69.9759C275.412 70.0895 275.501 70.1694 275.614 70.2156C275.732 70.2617 275.867 70.2848 276.019 70.2848C276.126 70.2848 276.232 70.2759 276.339 70.2582C276.445 70.2369 276.527 70.2209 276.584 70.2102L276.941 71.8988C276.827 71.9343 276.667 71.9751 276.461 72.0213C276.255 72.071 276.005 72.1012 275.71 72.1119C275.163 72.1332 274.684 72.0604 274.272 71.8935C273.864 71.7266 273.546 71.4673 273.319 71.1158C273.091 70.7642 272.979 70.3203 272.983 69.7841V61.858ZM280.603 72.1545C280.081 72.1545 279.616 72.0639 279.207 71.8828C278.799 71.6982 278.476 71.4265 278.238 71.0678C278.003 70.7056 277.886 70.2546 277.886 69.7148C277.886 69.2603 277.97 68.8786 278.137 68.5696C278.304 68.2607 278.531 68.0121 278.818 67.8239C279.106 67.6357 279.433 67.4936 279.799 67.3977C280.168 67.3018 280.555 67.2344 280.96 67.1953C281.436 67.1456 281.819 67.0994 282.11 67.0568C282.402 67.0107 282.613 66.9432 282.744 66.8544C282.876 66.7656 282.941 66.6342 282.941 66.4602V66.4283C282.941 66.0909 282.835 65.8299 282.622 65.6452C282.412 65.4606 282.114 65.3683 281.727 65.3683C281.318 65.3683 280.994 65.4588 280.752 65.6399C280.511 65.8175 280.351 66.0412 280.273 66.3111L278.174 66.1406C278.28 65.6435 278.49 65.2138 278.802 64.8516C279.115 64.4858 279.518 64.2053 280.012 64.0099C280.509 63.8111 281.084 63.7116 281.737 63.7116C282.192 63.7116 282.627 63.7649 283.043 63.8714C283.462 63.978 283.833 64.1431 284.156 64.3668C284.483 64.5906 284.74 64.8782 284.928 65.2298C285.116 65.5778 285.21 65.995 285.21 66.4815V72H283.059V70.8654H282.995C282.863 71.1211 282.687 71.3466 282.467 71.5419C282.247 71.7337 281.983 71.8846 281.674 71.9947C281.365 72.1012 281.008 72.1545 280.603 72.1545ZM281.253 70.5884C281.587 70.5884 281.881 70.5227 282.137 70.3913C282.393 70.2564 282.593 70.0753 282.739 69.848C282.884 69.6207 282.957 69.3633 282.957 69.0756V68.2074C282.886 68.2536 282.789 68.2962 282.664 68.3352C282.544 68.3707 282.407 68.4045 282.254 68.4364C282.101 68.4648 281.949 68.4915 281.796 68.5163C281.643 68.5376 281.505 68.5572 281.381 68.5749C281.114 68.614 280.882 68.6761 280.683 68.7614C280.484 68.8466 280.329 68.962 280.219 69.1076C280.109 69.2496 280.054 69.4272 280.054 69.6403C280.054 69.9492 280.166 70.1854 280.39 70.3487C280.617 70.5085 280.905 70.5884 281.253 70.5884ZM289.24 67.2699V72H286.971V63.8182H289.134V65.2617H289.229C289.411 64.7859 289.714 64.4094 290.14 64.1325C290.566 63.8519 291.083 63.7116 291.69 63.7116C292.259 63.7116 292.754 63.8359 293.177 64.0845C293.599 64.3331 293.928 64.6882 294.162 65.1499C294.396 65.608 294.514 66.1548 294.514 66.7905V72H292.244V67.1953C292.248 66.6946 292.12 66.304 291.861 66.0234C291.602 65.7393 291.245 65.5973 290.79 65.5973C290.485 65.5973 290.215 65.663 289.981 65.7944C289.75 65.9258 289.569 66.1175 289.437 66.3697C289.309 66.6183 289.244 66.9183 289.24 67.2699ZM300.654 63.8182V65.5227H295.727V63.8182H300.654ZM296.845 61.858H299.115V69.4858C299.115 69.6953 299.146 69.8587 299.21 69.9759C299.274 70.0895 299.363 70.1694 299.477 70.2156C299.594 70.2617 299.729 70.2848 299.882 70.2848C299.988 70.2848 300.095 70.2759 300.201 70.2582C300.308 70.2369 300.389 70.2209 300.446 70.2102L300.803 71.8988C300.689 71.9343 300.53 71.9751 300.324 72.0213C300.118 72.071 299.867 72.1012 299.573 72.1119C299.026 72.1332 298.546 72.0604 298.134 71.8935C297.726 71.7266 297.408 71.4673 297.181 71.1158C296.954 70.7642 296.842 70.3203 296.845 69.7841V61.858ZM304.577 61.0909V72H302.308V61.0909H304.577ZM307.796 75.0682C307.508 75.0682 307.238 75.0451 306.986 74.9989C306.737 74.9563 306.532 74.9013 306.368 74.8338L306.88 73.1399C307.146 73.2216 307.386 73.266 307.599 73.2731C307.815 73.2802 308.002 73.2305 308.158 73.1239C308.318 73.0174 308.447 72.8363 308.547 72.5806L308.68 72.2344L305.745 63.8182H308.131L309.825 69.8267H309.91L311.62 63.8182H314.023L310.843 72.8842C310.69 73.3246 310.482 73.7081 310.219 74.0348C309.96 74.3651 309.632 74.619 309.234 74.7965C308.836 74.9776 308.357 75.0682 307.796 75.0682ZM315.998 72.1385C315.646 72.1385 315.344 72.0142 315.092 71.7656C314.843 71.5135 314.719 71.2116 314.719 70.8601C314.719 70.5121 314.843 70.2138 315.092 69.9652C315.344 69.7166 315.646 69.5923 315.998 69.5923C316.338 69.5923 316.637 69.7166 316.892 69.9652C317.148 70.2138 317.276 70.5121 317.276 70.8601C317.276 71.0945 317.216 71.3093 317.095 71.5046C316.978 71.6964 316.823 71.8509 316.631 71.968C316.44 72.0817 316.228 72.1385 315.998 72.1385Z" fill="#231C1C"/>
<path d="M143.625 138.479C143.625 136.299 143.625 135.209 144.302 134.532C144.98 133.854 146.07 133.854 148.25 133.854H150.562C152.743 133.854 153.833 133.854 154.51 134.532C155.187 135.209 155.187 136.299 155.187 138.479V142.333C155.187 144.514 155.187 145.604 154.51 146.281C153.833 146.958 152.743 146.958 150.562 146.958H148.25C146.07 146.958 144.98 146.958 144.302 146.281C143.625 145.604 143.625 144.514 143.625 142.333V138.479Z" stroke="#1C274C" stroke-width="1.15625"/>
<path opacity="0.5" d="M143.625 144.646C142.348 144.646 141.312 143.61 141.312 142.333V137.708C141.312 134.801 141.312 133.348 142.216 132.445C143.119 131.542 144.572 131.542 147.479 131.542H150.562C151.84 131.542 152.875 132.577 152.875 133.854" stroke="#1C274C" stroke-width="1.15625"/>
<rect x="268" y="125" width="149" height="32" rx="5" fill="#B8C6F9"/>
<path d="M281.482 139.908C281.458 139.647 281.353 139.445 281.165 139.3C280.981 139.154 280.717 139.08 280.374 139.08C280.146 139.08 279.957 139.11 279.805 139.169C279.654 139.228 279.54 139.31 279.464 139.414C279.389 139.516 279.35 139.633 279.347 139.766C279.343 139.875 279.364 139.97 279.411 140.053C279.461 140.136 279.532 140.21 279.624 140.273C279.719 140.335 279.833 140.389 279.965 140.437C280.098 140.484 280.247 140.526 280.413 140.561L281.038 140.703C281.397 140.781 281.715 140.885 281.989 141.016C282.266 141.146 282.498 141.301 282.685 141.481C282.875 141.661 283.018 141.868 283.115 142.102C283.212 142.337 283.262 142.599 283.264 142.891C283.262 143.35 283.146 143.744 282.916 144.073C282.687 144.402 282.356 144.654 281.925 144.83C281.497 145.005 280.98 145.092 280.374 145.092C279.765 145.092 279.235 145.001 278.783 144.819C278.33 144.637 277.979 144.36 277.728 143.988C277.477 143.616 277.348 143.146 277.341 142.578H279.024C279.038 142.812 279.101 143.008 279.212 143.164C279.324 143.32 279.476 143.439 279.67 143.519C279.867 143.6 280.094 143.64 280.352 143.64C280.589 143.64 280.79 143.608 280.956 143.544C281.124 143.48 281.253 143.391 281.343 143.278C281.433 143.164 281.479 143.034 281.482 142.887C281.479 142.75 281.437 142.633 281.354 142.536C281.271 142.436 281.143 142.351 280.97 142.28C280.8 142.206 280.582 142.139 280.317 142.077L279.557 141.9C278.927 141.755 278.431 141.522 278.069 141.2C277.707 140.876 277.527 140.438 277.529 139.886C277.527 139.437 277.647 139.042 277.891 138.704C278.135 138.365 278.473 138.101 278.903 137.912C279.334 137.723 279.826 137.628 280.377 137.628C280.941 137.628 281.429 137.724 281.844 137.915C282.26 138.105 282.584 138.371 282.813 138.714C283.043 139.058 283.16 139.455 283.165 139.908H281.482ZM286.702 145.103C286.131 145.103 285.639 144.991 285.224 144.766C284.813 144.538 284.495 144.215 284.273 143.796C284.053 143.375 283.942 142.874 283.942 142.294C283.942 141.731 284.054 141.238 284.276 140.817C284.499 140.393 284.812 140.064 285.217 139.83C285.622 139.593 286.099 139.474 286.648 139.474C287.037 139.474 287.392 139.535 287.714 139.656C288.036 139.776 288.314 139.955 288.548 140.192C288.783 140.429 288.965 140.721 289.095 141.069C289.225 141.415 289.29 141.811 289.29 142.259V142.692H284.55V141.683H287.675C287.672 141.499 287.629 141.334 287.543 141.19C287.458 141.045 287.341 140.933 287.192 140.852C287.045 140.769 286.876 140.728 286.684 140.728C286.49 140.728 286.316 140.772 286.162 140.859C286.008 140.945 285.886 141.062 285.796 141.211C285.706 141.358 285.659 141.525 285.654 141.712V142.738C285.654 142.96 285.698 143.156 285.786 143.324C285.873 143.49 285.997 143.619 286.158 143.711C286.319 143.803 286.511 143.849 286.734 143.849C286.888 143.849 287.027 143.828 287.153 143.786C287.278 143.743 287.386 143.68 287.476 143.597C287.566 143.514 287.633 143.413 287.678 143.292L289.273 143.338C289.206 143.696 289.061 144.007 288.836 144.272C288.613 144.535 288.321 144.74 287.959 144.886C287.597 145.031 287.178 145.103 286.702 145.103ZM291.715 145.092C291.367 145.092 291.058 145.034 290.788 144.918C290.521 144.8 290.309 144.622 290.153 144.386C289.999 144.147 289.922 143.847 289.922 143.487C289.922 143.184 289.975 142.929 290.081 142.72C290.188 142.512 290.335 142.343 290.522 142.212C290.709 142.082 290.924 141.984 291.168 141.918C291.412 141.849 291.672 141.803 291.949 141.779C292.26 141.751 292.509 141.721 292.699 141.69C292.888 141.657 293.025 141.611 293.111 141.552C293.198 141.49 293.242 141.404 293.242 141.293V141.275C293.242 141.093 293.179 140.952 293.054 140.852C292.928 140.753 292.759 140.703 292.546 140.703C292.316 140.703 292.132 140.753 291.992 140.852C291.852 140.952 291.764 141.089 291.726 141.264L290.124 141.207C290.171 140.876 290.293 140.58 290.49 140.32C290.689 140.057 290.961 139.851 291.307 139.702C291.655 139.55 292.073 139.474 292.56 139.474C292.908 139.474 293.229 139.516 293.523 139.599C293.816 139.679 294.072 139.798 294.29 139.954C294.507 140.108 294.675 140.297 294.794 140.522C294.915 140.747 294.975 141.004 294.975 141.293V145H293.341V144.24H293.299C293.202 144.425 293.077 144.581 292.926 144.709C292.777 144.837 292.6 144.933 292.397 144.996C292.196 145.06 291.968 145.092 291.715 145.092ZM292.251 143.956C292.438 143.956 292.606 143.918 292.756 143.842C292.907 143.767 293.028 143.662 293.118 143.53C293.208 143.395 293.253 143.239 293.253 143.061V142.543C293.203 142.569 293.143 142.592 293.072 142.614C293.003 142.635 292.927 142.655 292.844 142.674C292.761 142.693 292.676 142.71 292.589 142.724C292.501 142.738 292.417 142.751 292.336 142.763C292.173 142.789 292.033 142.829 291.917 142.884C291.804 142.938 291.716 143.009 291.655 143.097C291.595 143.182 291.566 143.284 291.566 143.402C291.566 143.582 291.63 143.719 291.758 143.814C291.888 143.909 292.052 143.956 292.251 143.956ZM296.037 145V139.545H297.724V140.54H297.78C297.88 140.18 298.042 139.912 298.267 139.737C298.492 139.56 298.753 139.471 299.052 139.471C299.132 139.471 299.215 139.477 299.3 139.489C299.385 139.498 299.465 139.513 299.538 139.535V141.044C299.455 141.016 299.346 140.993 299.211 140.977C299.079 140.96 298.961 140.952 298.856 140.952C298.65 140.952 298.465 140.998 298.299 141.09C298.135 141.18 298.006 141.307 297.912 141.47C297.819 141.631 297.773 141.821 297.773 142.038V145H296.037ZM302.509 145.103C301.933 145.103 301.44 144.985 301.028 144.748C300.618 144.511 300.303 144.182 300.083 143.761C299.863 143.337 299.753 142.847 299.753 142.29C299.753 141.732 299.863 141.242 300.083 140.82C300.306 140.397 300.622 140.066 301.031 139.83C301.443 139.593 301.935 139.474 302.505 139.474C303.009 139.474 303.449 139.566 303.823 139.748C304.199 139.93 304.493 140.188 304.703 140.522C304.916 140.853 305.029 141.243 305.041 141.69H303.418C303.385 141.411 303.29 141.192 303.134 141.033C302.98 140.875 302.779 140.795 302.53 140.795C302.329 140.795 302.152 140.852 302.001 140.966C301.849 141.077 301.731 141.243 301.646 141.463C301.563 141.681 301.521 141.951 301.521 142.273C301.521 142.595 301.563 142.867 301.646 143.089C301.731 143.31 301.849 143.477 302.001 143.59C302.152 143.701 302.329 143.757 302.53 143.757C302.691 143.757 302.833 143.723 302.956 143.654C303.082 143.585 303.185 143.485 303.265 143.352C303.346 143.217 303.396 143.054 303.418 142.862H305.041C305.024 143.312 304.912 143.705 304.703 144.041C304.497 144.377 304.207 144.639 303.833 144.826C303.462 145.011 303.02 145.103 302.509 145.103ZM307.666 141.889V145H305.929V137.727H307.609V140.547H307.669C307.792 140.211 307.994 139.948 308.273 139.759C308.555 139.569 308.899 139.474 309.306 139.474C309.69 139.474 310.024 139.56 310.308 139.73C310.592 139.898 310.812 140.136 310.968 140.444C311.127 140.752 311.205 141.112 311.203 141.523V145H309.466V141.864C309.469 141.561 309.393 141.325 309.239 141.154C309.085 140.984 308.868 140.898 308.589 140.898C308.407 140.898 308.246 140.939 308.106 141.019C307.969 141.097 307.861 141.21 307.783 141.357C307.707 141.503 307.668 141.681 307.666 141.889ZM316.981 145.103C316.408 145.103 315.916 144.986 315.504 144.751C315.095 144.515 314.778 144.186 314.556 143.764C314.336 143.34 314.226 142.849 314.226 142.29C314.226 141.729 314.336 141.238 314.556 140.817C314.778 140.393 315.095 140.064 315.504 139.83C315.916 139.593 316.408 139.474 316.981 139.474C317.554 139.474 318.046 139.593 318.455 139.83C318.867 140.064 319.183 140.393 319.403 140.817C319.626 141.238 319.737 141.729 319.737 142.29C319.737 142.849 319.626 143.34 319.403 143.764C319.183 144.186 318.867 144.515 318.455 144.751C318.046 144.986 317.554 145.103 316.981 145.103ZM316.992 143.793C317.2 143.793 317.377 143.729 317.521 143.601C317.666 143.473 317.776 143.295 317.851 143.068C317.93 142.841 317.969 142.578 317.969 142.28C317.969 141.977 317.93 141.712 317.851 141.484C317.776 141.257 317.666 141.08 317.521 140.952C317.377 140.824 317.2 140.76 316.992 140.76C316.777 140.76 316.594 140.824 316.445 140.952C316.298 141.08 316.186 141.257 316.108 141.484C316.032 141.712 315.994 141.977 315.994 142.28C315.994 142.578 316.032 142.841 316.108 143.068C316.186 143.295 316.298 143.473 316.445 143.601C316.594 143.729 316.777 143.793 316.992 143.793ZM322.363 141.889V145H320.627V139.545H322.278V140.547H322.338C322.459 140.213 322.665 139.951 322.956 139.762C323.247 139.57 323.594 139.474 323.997 139.474C324.38 139.474 324.713 139.561 324.994 139.734C325.279 139.904 325.499 140.143 325.655 140.451C325.814 140.756 325.892 141.114 325.889 141.523V145H324.153V141.864C324.155 141.561 324.078 141.325 323.922 141.154C323.768 140.984 323.554 140.898 323.279 140.898C323.097 140.898 322.936 140.939 322.796 141.019C322.659 141.097 322.552 141.21 322.477 141.357C322.403 141.503 322.365 141.681 322.363 141.889ZM333.886 140.103C333.845 139.954 333.786 139.822 333.708 139.709C333.63 139.593 333.534 139.495 333.42 139.414C333.307 139.334 333.177 139.273 333.03 139.233C332.883 139.19 332.722 139.169 332.547 139.169C332.194 139.169 331.889 139.254 331.631 139.425C331.375 139.595 331.177 139.844 331.038 140.17C330.898 140.495 330.828 140.889 330.828 141.353C330.828 141.819 330.896 142.217 331.031 142.546C331.165 142.875 331.361 143.126 331.616 143.299C331.872 143.472 332.182 143.558 332.547 143.558C332.869 143.558 333.141 143.506 333.364 143.402C333.589 143.295 333.759 143.145 333.875 142.951C333.991 142.757 334.049 142.528 334.049 142.266L334.376 142.305H332.607V141.023H335.743V141.985C335.743 142.636 335.604 143.194 335.327 143.658C335.053 144.122 334.674 144.478 334.191 144.727C333.71 144.975 333.158 145.099 332.533 145.099C331.839 145.099 331.229 144.949 330.704 144.648C330.178 144.348 329.769 143.919 329.475 143.363C329.182 142.804 329.035 142.141 329.035 141.374C329.035 140.778 329.124 140.249 329.301 139.787C329.479 139.323 329.726 138.93 330.043 138.608C330.363 138.286 330.732 138.042 331.151 137.876C331.573 137.711 332.026 137.628 332.511 137.628C332.933 137.628 333.325 137.688 333.687 137.809C334.051 137.93 334.373 138.1 334.653 138.32C334.934 138.54 335.163 138.802 335.338 139.105C335.513 139.408 335.622 139.741 335.665 140.103H333.886ZM339.325 145.103C338.752 145.103 338.26 144.986 337.848 144.751C337.438 144.515 337.122 144.186 336.9 143.764C336.68 143.34 336.569 142.849 336.569 142.29C336.569 141.729 336.68 141.238 336.9 140.817C337.122 140.393 337.438 140.064 337.848 139.83C338.26 139.593 338.752 139.474 339.325 139.474C339.898 139.474 340.389 139.593 340.799 139.83C341.211 140.064 341.527 140.393 341.747 140.817C341.97 141.238 342.081 141.729 342.081 142.29C342.081 142.849 341.97 143.34 341.747 143.764C341.527 144.186 341.211 144.515 340.799 144.751C340.389 144.986 339.898 145.103 339.325 145.103ZM339.336 143.793C339.544 143.793 339.72 143.729 339.865 143.601C340.009 143.473 340.119 143.295 340.195 143.068C340.273 142.841 340.312 142.578 340.312 142.28C340.312 141.977 340.273 141.712 340.195 141.484C340.119 141.257 340.009 141.08 339.865 140.952C339.72 140.824 339.544 140.76 339.336 140.76C339.12 140.76 338.938 140.824 338.789 140.952C338.642 141.08 338.53 141.257 338.452 141.484C338.376 141.712 338.338 141.977 338.338 142.28C338.338 142.578 338.376 142.841 338.452 143.068C338.53 143.295 338.642 143.473 338.789 143.601C338.938 143.729 339.12 143.793 339.336 143.793ZM345.517 145.103C344.944 145.103 344.451 144.986 344.039 144.751C343.63 144.515 343.314 144.186 343.091 143.764C342.871 143.34 342.761 142.849 342.761 142.29C342.761 141.729 342.871 141.238 343.091 140.817C343.314 140.393 343.63 140.064 344.039 139.83C344.451 139.593 344.944 139.474 345.517 139.474C346.089 139.474 346.581 139.593 346.99 139.83C347.402 140.064 347.718 140.393 347.938 140.817C348.161 141.238 348.272 141.729 348.272 142.29C348.272 142.849 348.161 143.34 347.938 143.764C347.718 144.186 347.402 144.515 346.99 144.751C346.581 144.986 346.089 145.103 345.517 145.103ZM345.527 143.793C345.735 143.793 345.912 143.729 346.056 143.601C346.201 143.473 346.311 143.295 346.387 143.068C346.465 142.841 346.504 142.578 346.504 142.28C346.504 141.977 346.465 141.712 346.387 141.484C346.311 141.257 346.201 141.08 346.056 140.952C345.912 140.824 345.735 140.76 345.527 140.76C345.312 140.76 345.129 140.824 344.98 140.952C344.834 141.08 344.721 141.257 344.643 141.484C344.567 141.712 344.529 141.977 344.529 142.28C344.529 142.578 344.567 142.841 344.643 143.068C344.721 143.295 344.834 143.473 344.98 143.601C345.129 143.729 345.312 143.793 345.527 143.793ZM351.704 147.159C351.186 147.159 350.742 147.087 350.373 146.942C350.003 146.798 349.713 146.6 349.503 146.349C349.292 146.098 349.165 145.814 349.123 145.497L350.767 145.405C350.798 145.516 350.854 145.613 350.937 145.696C351.023 145.779 351.133 145.843 351.268 145.888C351.405 145.933 351.566 145.955 351.751 145.955C352.042 145.955 352.282 145.884 352.471 145.742C352.663 145.603 352.759 145.357 352.759 145.007V144.048H352.699C352.63 144.216 352.526 144.367 352.386 144.499C352.247 144.632 352.073 144.736 351.864 144.812C351.658 144.888 351.421 144.925 351.154 144.925C350.756 144.925 350.392 144.833 350.06 144.648C349.731 144.461 349.467 144.173 349.268 143.782C349.072 143.389 348.974 142.884 348.974 142.266C348.974 141.629 349.075 141.104 349.279 140.692C349.483 140.278 349.749 139.972 350.078 139.773C350.409 139.574 350.766 139.474 351.147 139.474C351.433 139.474 351.678 139.524 351.882 139.624C352.088 139.721 352.257 139.846 352.39 140C352.522 140.154 352.623 140.314 352.692 140.479H352.741V139.545H354.471V145.021C354.471 145.483 354.355 145.872 354.123 146.19C353.891 146.507 353.566 146.747 353.15 146.911C352.733 147.076 352.251 147.159 351.704 147.159ZM351.758 143.661C351.968 143.661 352.148 143.606 352.297 143.494C352.447 143.383 352.561 143.223 352.642 143.015C352.722 142.807 352.763 142.557 352.763 142.266C352.763 141.97 352.722 141.715 352.642 141.502C352.564 141.287 352.449 141.121 352.297 141.005C352.148 140.889 351.968 140.831 351.758 140.831C351.542 140.831 351.36 140.89 351.211 141.009C351.062 141.127 350.948 141.294 350.87 141.509C350.794 141.722 350.756 141.974 350.756 142.266C350.756 142.557 350.795 142.807 350.873 143.015C350.952 143.223 351.064 143.383 351.211 143.494C351.36 143.606 351.542 143.661 351.758 143.661ZM357.314 137.727V145H355.578V137.727H357.314ZM360.969 145.103C360.399 145.103 359.906 144.991 359.492 144.766C359.08 144.538 358.763 144.215 358.54 143.796C358.32 143.375 358.21 142.874 358.21 142.294C358.21 141.731 358.321 141.238 358.544 140.817C358.766 140.393 359.08 140.064 359.485 139.83C359.89 139.593 360.367 139.474 360.916 139.474C361.304 139.474 361.659 139.535 361.981 139.656C362.303 139.776 362.581 139.955 362.816 140.192C363.05 140.429 363.233 140.721 363.363 141.069C363.493 141.415 363.558 141.811 363.558 142.259V142.692H358.817V141.683H361.942C361.94 141.499 361.896 141.334 361.811 141.19C361.726 141.045 361.608 140.933 361.459 140.852C361.313 140.769 361.143 140.728 360.952 140.728C360.757 140.728 360.583 140.772 360.43 140.859C360.276 140.945 360.154 141.062 360.064 141.211C359.974 141.358 359.926 141.525 359.922 141.712V142.738C359.922 142.96 359.965 143.156 360.053 143.324C360.141 143.49 360.265 143.619 360.426 143.711C360.587 143.803 360.779 143.849 361.001 143.849C361.155 143.849 361.295 143.828 361.42 143.786C361.546 143.743 361.653 143.68 361.743 143.597C361.833 143.514 361.901 143.413 361.946 143.292L363.54 143.338C363.474 143.696 363.328 144.007 363.104 144.272C362.881 144.535 362.589 144.74 362.226 144.886C361.864 145.031 361.445 145.103 360.969 145.103ZM366.593 145V137.727H368.33V140.479H368.365C368.436 140.314 368.537 140.154 368.667 140C368.8 139.846 368.968 139.721 369.172 139.624C369.377 139.524 369.624 139.474 369.91 139.474C370.289 139.474 370.643 139.574 370.972 139.773C371.303 139.972 371.571 140.278 371.775 140.692C371.978 141.107 372.08 141.635 372.08 142.276C372.08 142.894 371.982 143.411 371.785 143.828C371.591 144.245 371.328 144.557 370.997 144.766C370.668 144.974 370.302 145.078 369.9 145.078C369.625 145.078 369.387 145.033 369.186 144.943C368.984 144.853 368.815 144.735 368.678 144.588C368.543 144.441 368.439 144.284 368.365 144.116H368.312V145H366.593ZM368.294 142.273C368.294 142.566 368.333 142.822 368.412 143.04C368.492 143.258 368.607 143.427 368.756 143.548C368.908 143.666 369.089 143.725 369.299 143.725C369.512 143.725 369.694 143.666 369.843 143.548C369.992 143.427 370.104 143.258 370.18 143.04C370.258 142.822 370.297 142.566 370.297 142.273C370.297 141.979 370.258 141.725 370.18 141.509C370.104 141.294 369.992 141.127 369.843 141.009C369.696 140.89 369.515 140.831 369.299 140.831C369.086 140.831 368.905 140.889 368.756 141.005C368.607 141.121 368.492 141.287 368.412 141.502C368.333 141.718 368.294 141.974 368.294 142.273ZM373.876 147.045C373.668 147.045 373.471 147.029 373.286 146.996C373.102 146.965 372.943 146.924 372.811 146.871L373.194 145.611C373.365 145.668 373.518 145.701 373.656 145.71C373.795 145.72 373.915 145.697 374.014 145.643C374.116 145.591 374.194 145.497 374.249 145.362L374.316 145.199L372.377 139.545H374.195L375.2 143.438H375.257L376.276 139.545H378.105L376.049 145.522C375.95 145.82 375.809 146.083 375.627 146.31C375.447 146.54 375.213 146.72 374.927 146.85C374.643 146.98 374.293 147.045 373.876 147.045ZM387.109 137.727V145H385.618L382.724 140.803H382.677V145H380.92V137.727H382.432L385.295 141.918H385.355V137.727H387.109ZM389.752 145.092C389.404 145.092 389.095 145.034 388.825 144.918C388.558 144.8 388.346 144.622 388.19 144.386C388.036 144.147 387.959 143.847 387.959 143.487C387.959 143.184 388.012 142.929 388.119 142.72C388.225 142.512 388.372 142.343 388.559 142.212C388.746 142.082 388.961 141.984 389.205 141.918C389.449 141.849 389.71 141.803 389.987 141.779C390.297 141.751 390.546 141.721 390.736 141.69C390.925 141.657 391.063 141.611 391.148 141.552C391.235 141.49 391.279 141.404 391.279 141.293V141.275C391.279 141.093 391.216 140.952 391.091 140.852C390.965 140.753 390.796 140.703 390.583 140.703C390.353 140.703 390.169 140.753 390.029 140.852C389.889 140.952 389.801 141.089 389.763 141.264L388.161 141.207C388.209 140.876 388.33 140.58 388.527 140.32C388.726 140.057 388.998 139.851 389.344 139.702C389.692 139.55 390.11 139.474 390.597 139.474C390.945 139.474 391.266 139.516 391.56 139.599C391.853 139.679 392.109 139.798 392.327 139.954C392.545 140.108 392.713 140.297 392.831 140.522C392.952 140.747 393.012 141.004 393.012 141.293V145H391.379V144.24H391.336C391.239 144.425 391.115 144.581 390.963 144.709C390.814 144.837 390.638 144.933 390.434 144.996C390.233 145.06 390.005 145.092 389.752 145.092ZM390.288 143.956C390.475 143.956 390.643 143.918 390.793 143.842C390.944 143.767 391.065 143.662 391.155 143.53C391.245 143.395 391.29 143.239 391.29 143.061V142.543C391.24 142.569 391.18 142.592 391.109 142.614C391.04 142.635 390.964 142.655 390.881 142.674C390.799 142.693 390.713 142.71 390.626 142.724C390.538 142.738 390.454 142.751 390.374 142.763C390.21 142.789 390.071 142.829 389.955 142.884C389.841 142.938 389.753 143.009 389.692 143.097C389.633 143.182 389.603 143.284 389.603 143.402C389.603 143.582 389.667 143.719 389.795 143.814C389.925 143.909 390.089 143.956 390.288 143.956ZM394.074 145V139.545H395.725V140.547H395.786C395.899 140.215 396.091 139.954 396.361 139.762C396.631 139.57 396.953 139.474 397.327 139.474C397.705 139.474 398.03 139.571 398.3 139.766C398.57 139.96 398.741 140.22 398.815 140.547H398.871C398.973 140.223 399.172 139.963 399.468 139.769C399.764 139.573 400.113 139.474 400.516 139.474C401.032 139.474 401.451 139.64 401.773 139.972C402.095 140.301 402.256 140.753 402.256 141.328V145H400.519V141.726C400.519 141.454 400.449 141.246 400.31 141.104C400.17 140.96 399.989 140.888 399.766 140.888C399.527 140.888 399.339 140.966 399.202 141.122C399.067 141.276 398.999 141.483 398.999 141.744V145H397.33V141.708C397.33 141.455 397.262 141.255 397.124 141.108C396.987 140.961 396.806 140.888 396.581 140.888C396.429 140.888 396.296 140.924 396.18 140.998C396.064 141.069 395.973 141.171 395.906 141.303C395.842 141.436 395.81 141.592 395.81 141.772V145H394.074ZM405.881 145.103C405.311 145.103 404.818 144.991 404.404 144.766C403.992 144.538 403.675 144.215 403.452 143.796C403.232 143.375 403.122 142.874 403.122 142.294C403.122 141.731 403.233 141.238 403.456 140.817C403.679 140.393 403.992 140.064 404.397 139.83C404.802 139.593 405.279 139.474 405.828 139.474C406.216 139.474 406.571 139.535 406.893 139.656C407.215 139.776 407.494 139.955 407.728 140.192C407.962 140.429 408.145 140.721 408.275 141.069C408.405 141.415 408.47 141.811 408.47 142.259V142.692H403.729V141.683H406.854C406.852 141.499 406.808 141.334 406.723 141.19C406.638 141.045 406.521 140.933 406.371 140.852C406.225 140.769 406.055 140.728 405.864 140.728C405.67 140.728 405.496 140.772 405.342 140.859C405.188 140.945 405.066 141.062 404.976 141.211C404.886 141.358 404.839 141.525 404.834 141.712V142.738C404.834 142.96 404.878 143.156 404.965 143.324C405.053 143.49 405.177 143.619 405.338 143.711C405.499 143.803 405.691 143.849 405.913 143.849C406.067 143.849 406.207 143.828 406.332 143.786C406.458 143.743 406.566 143.68 406.656 143.597C406.746 143.514 406.813 143.413 406.858 143.292L408.452 143.338C408.386 143.696 408.241 144.007 408.016 144.272C407.793 144.535 407.501 144.74 407.138 144.886C406.776 145.031 406.357 145.103 405.881 145.103Z" fill="#1C274C" fill-opacity="0.93"/>
<defs>
<linearGradient id="paint0_linear_56_36" x1="0.5" y1="83" x2="426.5" y2="83" gradientUnits="userSpaceOnUse">
<stop offset="0.252347" stop-color="#DCEBEC"/>
<stop offset="0.88615" stop-color="white"/>
</linearGradient>
</defs>
</svg>
